<svg xmlns="http://www.w3.org/2000/svg" viewBox="0 0 1527.15125 464.20743">
  <title>logo</title>
  <g id="Layer_2" data-name="Layer 2">
    <g id="burtonmade">
      <g id="logo">
        <path id="outline" d="M196.90489,459.57042c-7.14583-2.70879-14.47671-2.9669-21.95225-1.78929a24.18391,24.18391,0,0,1-4.6539-.031c-1.37889-.0543-2.75314-.22873-4.13205-.28063-1.75267-.06593-3.64507.34988-5.2319-.17863-2.78787-.92851-5.65713-.21127-8.3095-.79185a40.75363,40.75363,0,0,0-9.76919-.59528c-2.61889.052-5.25335-.75988-7.88355-1.17123-2.36745-.37017-4.73886-.715-7.10787-1.0752a21.79464,21.79464,0,0,1-8.56569-2.97777,10.99071,10.99071,0,0,0-3.3207-1.05687,34.24719,34.24719,0,0,1-4.04684-.82,18.00158,18.00158,0,0,0-6.51272-1.02031c-3.41971.01533-6.84-.07837-10.25992-.13279a10.11722,10.11722,0,0,1-5.10056-.91976,7.307,7.307,0,0,0-3.24919-.3882c-4.33858-.08429-8.70826.12157-12.83157-1.63667-4.04429.35165-7.12-2.07517-10.48017-3.67038-4.16312-1.97639-8.40712-3.81539-12.41581-6.07-1.96785-1.10679-3.49-3.01042-5.19741-4.57142-.26509-.24233-.37848-.71859-.6699-.85329-2.28672-1.05713-3.46551-3.25558-5.11115-4.95429a11.19507,11.19507,0,0,1-3.53243-8.11274c.00745-.4612-.12234-1.04977.10705-1.36269,2.087-2.84688,1.192-6.43617,2.41454-9.47276,1.63219-4.054,3.48946-7.9243,7.76466-9.992,3.23347-1.56384,6.4204-1.30778,9.67718-.25457a20.30005,20.30005,0,0,0,3.13562.93675c3.51246.52926,5.60562-1.66677,4.95421-5.21632a64.69223,64.69223,0,0,0-1.55055-6.74659,18.18794,18.18794,0,0,1-.35829-9.83575c.313-1.23786.66275-2.46639,1.08034-4.0123-3.19183-1.94833-3.78609-5.79354-5.34831-9.05583a9.568,9.568,0,0,1-.549-7.53922c.95114-2.68852.68949-3.40942-1.68173-5.17174-1.8493-1.37443-1.82036-1.3626-.95825-3.469a19.02512,19.02512,0,0,0,.51793-2.12556,7.57027,7.57027,0,0,1,.69206-2.06275c1.65817-2.59048,1.6883-2.57118,1.65674-5.61416-1.72892-.84334-3.499-1.70678-5.27395-2.5726-.13014-1.199.54785-1.8136,1.50179-2.38634a2.59208,2.59208,0,0,0,1.25057-1.54693c.46551-4.57382.8021-9.16075,1.19753-13.98224-.69647-.3-1.63912-.62248-2.50051-1.09347-2.27171-1.24225-2.62988-2.88565-1.15493-4.99667.42026-.60151.86618-1.18568,1.26817-1.79886.08587-.131.03217-.35352.05712-.77821-1.96679.16259-2.10114-2.18243-3.70226-2.77466a2.1583,2.1583,0,0,1,.06535-1.7248,39.19082,39.19082,0,0,1,3.04657-3.29161l-.09777-2.23483.50841-.17616c.45792.56122.91584,1.12246,1.35716,1.66333.13-.00591.264.02308.29127-.01827,1.11052-1.68606,2.65777-1.64154,4.36287-1.18476.16853.04513.6598-.4384.6894-.71047a1.67,1.67,0,0,0-.33554-1.22191c-1.21518-1.2307-1.70094-1.88864-1.89826-2.94773-2.86627-1.16478-5.77071-2.34593-8.67591-3.52526-1.44911-.58824-3.623-3.79758-3.36281-5.339a5.19454,5.19454,0,0,1,1.31966-2.27135,17.917,17.917,0,0,1,2.27055-1.86888,19.22122,19.22122,0,0,0-1.75822-.94124,3.35911,3.35911,0,0,1-1.77793-5.27584c.8892-1.39543,1.72823-2.82288,2.68343-4.38966-.61049-.87982-1.12476-1.74168-1.75731-2.50561a9.76773,9.76773,0,0,1-2.33561-4.3173,3.29607,3.29607,0,0,0-2.72413-2.8292,2.6315,2.6315,0,0,1-2.57711-3.15309c-1.5052-.29034-2.89066-.55759-4.47517-.86325-.08921.59912-.19327,1.0915-.2241,1.58845-.01643.26468.23109.68869.12637.78362-1.70187,1.54248-1.24326,3.71789-1.75513,5.60823a1.76447,1.76447,0,0,1-1.35136.98176,1.19614,1.19614,0,0,1-1.16586-1.53679c.11343-.72648.26659-1.44674.4606-2.48172-.7864-.34958-1.61183-1.05909-2.37837-1.00031-4.22359.32382-8.20646-1.08979-12.3193-1.49647a27.88269,27.88269,0,0,0-4.408-.16241,2.728,2.728,0,0,1-2.64249-.99789c-1.50652-1.83061-3.54938-3.15413-4.599-5.45869a3.94073,3.94073,0,0,1-.63852-2.69244c.13791-.72921-.53981-1.71158-1.04713-2.44557-1.59384-2.30611-1.93049-4.97667-2.26585-7.62412a12.86,12.86,0,0,1,.44036-3.17753C-.00408,233.25832-.217,231.59515.15135,229.3445c.48575-2.968,1.90118-5.7838,1.54695-8.89462a1.52579,1.52579,0,0,1,.17071-1.0728c1.74567-1.85892,1.05579-4.23166,1.23753-6.35376.11653-1.36063-.64661-2.79661-1.06082-4.37139a5.68928,5.68928,0,0,0,3.991-4.07312,3.7858,3.7858,0,0,0-.99386-4.29416A25.72569,25.72569,0,0,0,2.694,198.34784c-1.6072-1.2286-2.26448-3.10769-1.54308-4.51193.57886-1.12679,2.75494-1.79113,4.40291-1.35583.42576.11246.86194.18546,1.46667.31322a6.36621,6.36621,0,0,0,.38474-1.62868c-.13248-2.4881-.53411-4.97715-.47314-7.45681a79.73334,79.73334,0,0,1,.90413-12.64792c.348-1.86232.80927-3.82008,1.28205-5.7161.61191-2.454.7355-4.86587-1.08431-7.0488-1.103-1.32315-.8132-2.36531.85878-2.94931a3.80561,3.80561,0,0,0,2.62119-3.22912,10.00749,10.00749,0,0,1,2.33726-4.918,4.66569,4.66569,0,0,0,.58358-2.54386,37.09893,37.09893,0,0,1,.22116-4.66772,9.25918,9.25918,0,0,1,1.6973-3.70135c1.954-2.49538,4.20217-4.73956,6.08452-7.32283a30.91047,30.91047,0,0,1,5.02846-5.11118,9.714,9.714,0,0,1,9.37169-2.01963,11.77775,11.77775,0,0,1,4.90681,3.77219,19.03621,19.03621,0,0,1,4.44766,8.49729,7.07772,7.07772,0,0,0,.73554,2.08325c1.87267,3.25916,3.73226,6.53,5.74582,9.70187.73944,1.16482,1.26643,2.2094.83823,3.58676a4.70748,4.70748,0,0,0-.18909,1.36935c-.01256,5.71122-2.36818,10.68186-4.98334,15.54423-1.9543,3.63361-2.03959,6.27456.06492,10.3l2.87543-5.07026c.84913,1.599.84913,1.599-1.24391,4.75207l2.02359,3.02305L49.608,181.7315c2.61742,1.281,4.1823-1.07455,6.55508-1.05176.52252,1.38693,1.09139,2.91029,1.67012,4.42992.94818,2.48966,3.08827,3.10471,5.2047,1.44071a21.01,21.01,0,0,0,2.42-2.274c1.38738-1.50233,1.362-1.52572.991-3.92292l3.594.052c-.44668,1.20309-.99818,2.39172,1.16294,2.44708a106.71054,106.71054,0,0,0,4.2092-13.4111c2.6403-.48074,4.27678-2.70029,6.12465-4.595,1.91587-1.9644,2.3573-4.55085,2.538-7.15512a3.52215,3.52215,0,0,0-.64859-1.76981c-1.09548-1.90224-2.23232-3.78127-3.38613-5.64892a5.20151,5.20151,0,0,0-1.19677-1.51342,6.65793,6.65793,0,0,1-2.73649-4.596c-.09055-.57571-.62243-1.07459-.91646-1.62763a7.43952,7.43952,0,0,1-.89986-1.906,17.73988,17.73988,0,0,0-1.87195-4.20247,17.976,17.976,0,0,1-1.2585-6.38,11.81355,11.81355,0,0,1,.72972-4.05512c.84187-2.82708,1.83783-5.608,2.70731-8.42734a6.408,6.408,0,0,0,.2381-2.1683c-.2213-4.42263-.53022-8.84112-.7233-13.26477A29.12063,29.12063,0,0,1,74.2846,97.169a51.73339,51.73339,0,0,0,.59831-12.13361c-.63882-6.03291,1.38078-11.47885,4.20343-16.6445,1.137-2.08076,2.19208-4.04693,1.59825-6.52487a2.0476,2.0476,0,0,1,.38585-1.49608c2.73056-3.60076,5.47727-7.19075,8.30035-10.719a19.94865,19.94865,0,0,1,2.95542-2.86425c2.39768-1.96939,4.8869-3.82756,7.27848-5.804a34.15471,34.15471,0,0,0,2.66306-2.7806l-2.15436-.79246c.42476-2.435-1.09014-3.2835-3.20285-3.73765-2.21843-.47688-4.37284-1.59492-6.6376-.06684a2.03131,2.03131,0,0,1-1.58572-.056c-2.7834-1.11617-5.69055-.74567-8.49341-.47285a25.82478,25.82478,0,0,0-6.56075,1.89709,4.91372,4.91372,0,0,0-3.32623,4.9525c.00723.92313.11881,1.84636.10576,2.76846-.01035.73245.142,1.809-.26147,2.13577-1.89424,1.53424-1.38484,3.48251-1.51469,5.48251a20.31757,20.31757,0,0,1-1.66673,6.33424c-1.09965,2.64086-3.18962,4.4246-6.18746,4.33954-2.84786-.08082-5.68081-.60648-8.52621-.87384-4.02894-.37857-7.67779-1.98282-11.29066-3.59817a14.61046,14.61046,0,0,1-3.6877-2.8667c-1.21461-1.13369-1.32043-2.67426-1.52213-4.29167-.41527-3.33014,1.18826-5.33231,3.63995-7.13214,2.68706-1.97263,5.31123-4.06094,6.23149-7.53741a2.38115,2.38115,0,0,1,.67272-.84943c2.3503-2.45838,4.74577-4.875,7.04592-7.37929a10.219,10.219,0,0,0,2.23924-4.35853,17.24323,17.24323,0,0,1,2.60268-4.49636c.2046-.31048.77424-.44035,1.20189-.5344,3.31815-.72975,6.62364-1.54447,9.97128-2.10415,2.72659-.45584,5.50433-.61385,8.26252-.87012q3.7248-.34608,7.45668-.6147a25.93287,25.93287,0,0,0,8.99994-2.56186,5.10221,5.10221,0,0,1,3.447-.45259,5.453,5.453,0,0,0,2.18646.21939c3.77883-.78,7.53247-.35068,11.3008.02581a5.62569,5.62569,0,0,0,2.45556-.21238,17.64394,17.64394,0,0,1,8.73085-.61735,13.59678,13.59678,0,0,0,2.97941-.216,34.8074,34.8074,0,0,0,3.85347-.41775c3.23108-.67893,5.953.62821,8.71623,1.96919a20.035,20.035,0,0,0,3.159.92544c.2818,1.602,1.92724,2.616,3.33768,3.24193,2.37477,1.05383,3.05775,3.0377,3.92274,5.06011.45517,1.06422.67821,2.65314,1.47929,3.05007a10.37,10.37,0,0,0,4.79153.84715,7.07054,7.07054,0,0,0,3.25245-1.34784c1.19915-.76433,2.23-.66485,2.81467.49857.9764,1.94268,2.63588,2.04975,4.42752,2.10539,1.75338.05445,3.50508.16542,5.25708.25982a4.703,4.703,0,0,1,1.91625.17445c3.17832,1.79954,6.305-.01922,9.43453-.139.9359-.03583,1.82523-1.28771,2.9047-2.11123,1.30118,2.07485,3.487,1.62352,5.53278,1.97613a39.15261,39.15261,0,0,0,9.20292.08354c6.07314-.36681,12.18862-.12864,18.28326.00777a49.4362,49.4362,0,0,1,6.58838.81629c6.62068,1.05131,13.26734.53134,19.9084.4001a31.53277,31.53277,0,0,0,4.15058-.13833,19.10113,19.10113,0,0,0,3.33116-1.09434,43.1047,43.1047,0,0,1,5.97711-2.06553,4.96685,4.96685,0,0,0,4.35382-4.01858c.06526-.26774.22682-.51651.266-.7854.47079-3.229,1.47162-6.07688,5.02495-7.131C270.88683,7.70329,276.2,6.46409,281.22607,4.921c3.47477-1.06685,7.24727-1.19853,10.89985-1.63922,2.36976-.28591,4.8712-.90238,7.12275-.44048,4.27743.8775,8.44637.20984,12.66385.0657a14.11743,14.11743,0,0,1,3.57416.13069,12.46953,12.46953,0,0,0,7.065-.40857,14.90476,14.90476,0,0,1,7.66183-.25284,15.12259,15.12259,0,0,0,6.85492-.0252,16.86734,16.86734,0,0,1,3.58146-.28019c.27369-.01546.58751.14255.82227.05613,3.57855-1.3175,7.2429-.50977,10.8745-.46215a17.97755,17.97755,0,0,1,2.17047.14741,43.14986,43.14986,0,0,0,5.422.75412c3.64562.02152,7.295-.17275,10.93763-.37279a12.97285,12.97285,0,0,0,2.563-.71463,6.34138,6.34138,0,0,1,3.51105-.223c5.63869,1.13494,11.19107.39961,16.76642-.57793,2.52791-.44323,5.13047-.46165,7.69955-.66765a1.68336,1.68336,0,0,1,.55107.02592C409.8067,2.09365,417.89764,1.3408,425.842,2.197c3.75216.40437,7.4739,1.084,11.21787,1.57464a21.056,21.056,0,0,0,4.64791.29135,11.21146,11.21146,0,0,1,5.15375.47621c3.03213,1.12133,6.12858,2.08889,9.4556,1.25974a2.74156,2.74156,0,0,1,1.6405.1024c3.83338,1.66472,7.82675.80641,11.76467.83488,1.54451.01116,3.10887-.27119,4.54171.77791a3.52644,3.52644,0,0,0,2.07255.18c3.22267-.21988,6.44625-.71077,9.66075-.64925a6.03967,6.03967,0,0,0,4.04164-1.33267,3.926,3.926,0,0,1,3.5945-.86418,4.897,4.897,0,0,0,2.69366-.24233c3.27228-1.18949,6.69789-1.21251,10.08979-1.51265q2.89231-.25593,5.788-.47251a8.36442,8.36442,0,0,1,1.36641.04186c2.1076.1921,4.21034.47135,6.32189.57485,1.65225.081,3.23141-.00934,4.7973.9189a4.30782,4.30782,0,0,0,3.2259.182c3.67959-1.29061,7.30122-.36833,10.9558-.08831,1.71288.13124,3.45253-.08166,5.16444.0558a20.90672,20.90672,0,0,1,4.87113.84187,14.37853,14.37853,0,0,0,4.28414.32706c4.04809.139,8.093.45555,12.12945.81166a7.23259,7.23259,0,0,0,5.03057-.89354,5.12438,5.12438,0,0,1,3.14663-.66011c9.49751,1.00257,19.03329.56185,28.50594.18778,9.22955-.36447,18.41907-.1334,27.626.03809,1.55177.0289,3.0987.31785,4.64782.48781.09168.01006.195.06739.27142.04084,3.16307-1.099,6.38419.18351,9.572-.232a20.11063,20.11063,0,0,1,3.581.0133c2.0202.10179,4.03582.3369,6.0563.38125,5.53166.12141,11.07242.03053,16.59375.32276A18.641,18.641,0,0,1,676.73776,7.626a15.56007,15.56007,0,0,0,4.94079,1.52533,6.44293,6.44293,0,0,1,4.45594,2.53668c3.073,3.72971,7.26728,5.61206,11.74871,6.92446a17.60807,17.60807,0,0,0,4.36679.53c1.10639.03451,2.12272-.12331,3.09045.74818a2.93912,2.93912,0,0,0,2.09131.29693,16.48188,16.48188,0,0,1,8.40166,1.06354,2.25847,2.25847,0,0,0,1.5523.12391c3.07283-1.4065,6.24136-.98663,9.47131-.89007,4.05944.12135,8.29335,1.0233,11.95308-1.34808,2.242.59681,4.33495,1.22975,6.4682,1.66559.49929.102,1.217-.36351,1.68652-.74814a12.95869,12.95869,0,0,0,1.5235-1.8c1.182.791,2.14781,2.02341,3.83586,1.57692,2.86614-.75812,6.17677.25392,8.53165-2.05906,7.071.49773,14.05708.99052,21.0433,1.48032,1.382.09689,2.76867.14343,4.14609.28317,1.57446.15972,3.0994.27421,4.50324-.72962a2.42855,2.42855,0,0,1,1.57188-.4491c3.05.41366,5.56985-1.46126,8.39033-1.71688.77032-3.53935.77032-3.53935,4.22015-2.27737.06457.49378.11222,1.03842.213,1.573.08277.43935.22874.86678.34353,1.28787,1.36874-.21051,1.36874-.21051,3.177-1.72668,1.64632.59431,3.27412,1.14884,4.87316,1.77651a6.48978,6.48978,0,0,1,1.63824.96631,4.60862,4.60862,0,0,0,6.00911.33313,1.92552,1.92552,0,0,1,2.50739-.01428,3.50746,3.50746,0,0,0,3.058.91536,1.49279,1.49279,0,0,1,1.07952.113c2.14551,1.59269,4.56078.84982,6.89679.90111,8.59111.18862,17.18053.509,25.77224.58178,1.96135.01661,4.01588.24912,5.971-.71725,2.0916-1.03374,4.251-1.8201,4.91354-4.42574a2.37922,2.37922,0,0,1,1.012-1.28477c2.70755-1.6431,5.08016-3.88986,8.56752-4.04783,2.94365-.13334,5.86337-.7338,8.80394-1.02429,1.15818-.1144,2.34536.10247,3.51664.07007A4.61059,4.61059,0,0,0,895.143,9.2552a12.00415,12.00415,0,0,1,7.95091-1.67872c3.08742.47956,6.22661,1.19553,9.30064,1.02789,2.95549-.16119,5.56858,1.12727,8.411,1.11227.18359-.001.36755.05734.551.05555,2.39111-.02326,4.34417,1.8367,7.12268.976,2.23339-.69183,4.93167-.0127,7.406.23467,3.39721.33964,6.76731,1.06982,10.168,1.22985,5.43065.25557,10.87683.21525,16.31663.22657,2.1747.00452,4.46073.4729,6.36954-1.18244a1.70448,1.70448,0,0,1,1.32009-.18486c3.7223.89778,7.30408-.6484,10.97306-.58671a1.122,1.122,0,0,0,.54617-.06849c3.10683-1.78065,6.631-1.93948,10.02623-2.5982.18036-.035.42866-.02949.52451-.144,1.69489-2.02544,4.01812-1.44147,6.174-1.484,6.83057-.13469,13.66169-.23716,20.49249-.36009.45084-.00812,1.07354.09105,1.32231-.15592,1.52745-1.516,3.15247-.7832,4.86493-.48736,2.35828.40741,4.77148.48642,7.15206.78031a23.78639,23.78639,0,0,1,2.73761.66132c.738-2.56515.74637-2.61378,3.68961-2.10492,4.18069.7228,8.33119,1.63781,12.52652,2.25263,2.5475.37334,5.16624.23068,7.73355.50334,6.37056.67662,12.726-.16555,19.08356-.05376,3.868.068,7.7286.57892,11.59094.90969a1.906,1.906,0,0,1,1.04786.31706c2.0648,1.82648,4.43433,1.18428,6.82835,1.10078a24.70618,24.70618,0,0,1,5.71745.8443c2.79632.57744,5.54713,1.40288,8.35984,1.86268a10.91842,10.91842,0,0,0,4.92667-.09277,40.3467,40.3467,0,0,1,8.61315-1.69631,83.19179,83.19179,0,0,0,8.94744-1.83442c.6287-.13285,1.36-.469,1.88153-.275a2.20438,2.20438,0,0,0,2.65957-.37114,2.84887,2.84887,0,0,1,2.52651-.24559,3.09732,3.09732,0,0,0,3.33575-.16321,3.03482,3.03482,0,0,1,1.3343-.17962c2.37459-.19112,4.75187-.353,7.1228-.58167a1.989,1.989,0,0,0,1.2283-.54845c1.4469-1.68223,3.32647-1.666,5.31879-1.67372a13.68715,13.68715,0,0,0,4.3096-.74153,20.51825,20.51825,0,0,1,13.82269.013,40.34226,40.34226,0,0,0,6.51941,1.16282,27.01616,27.01616,0,0,1,6.67247,2.41666c3.47125,1.57426,6.967,4.086,11.24658,2.48977a4.27485,4.27485,0,0,1,1.64462-.00435c5.15783.30666,10.32122.54707,15.47059.96131,3.36753.2709,6.25912-.374,8.26044-3.449a14.59323,14.59323,0,0,1,2.13265.79584c2.94115,1.66931,5.66761.83962,8.42521-.53265a86.28457,86.28457,0,0,1,7.99882-3.66688,6.57091,6.57091,0,0,1,5.88271.53751c.46437.28318,1.20974.79239,1.46073.6307,2.18754-1.408,4.04572.52775,6.08764.49889,2.02539-.02863,4.05441.22575,6.08221.34954,1.01363.06187,2.02763.12575,3.0422.16a39.46744,39.46744,0,0,1,7.396.7204c2.76108.61629,5.6866.50045,8.54154.68562.36451.02364.81171-.21039,1.09231-.06942,2.69166,1.35253,5.68839,1.64125,8.5084,2.52885a14.20714,14.20714,0,0,1,2.68111,1.43537,3.94427,3.94427,0,0,0,3.67807.36506,9.70294,9.70294,0,0,1,5.97176-.16013c2.31492.54475,4.75375.54671,7.12905.85919.95487.12562,1.88373.44886,3.46708.84151-1.63217,1.598-2.82515,2.76587-3.9412,3.85862,1.56376,1.42,2.975,2.90352,4.59029,4.11515,1.86218,1.39692,5.41853.69191,7.4815-1.48622a11.40679,11.40679,0,0,1-2.00889.28273c-1.26-.06972-2.48581-.41521-2.52423-1.95465-.0304-1.22243-1.69588-2.20138-.492-3.66468.11939-.14512-.89847-1.226-1.70356-2.28826.96044.2185,1.43832.33542,1.9197.43472a5.35841,5.35841,0,0,0,2.12236.37454,35.1356,35.1356,0,0,1,7.64829-.78939,3.50709,3.50709,0,0,0,1.87794-.38677c1.999-1.50261,4.38175-1.15991,6.60815-1.556a5.311,5.311,0,0,1,1.0962-.14127c6.52976.23169,13.06354.04494,19.59136.16691,3.75831.07022,7.50767.65631,11.25887,1.0311a2.88036,2.88036,0,0,1,1.32072.357c1.1346.79013,2.2265.506,3.42787.17179,3.84957-1.0709,7.73035-1.89319,11.72642-.67682a2.75648,2.75648,0,0,0,1.37432.07839c3.1272-.74526,6.21469.22611,9.31724.296,1.90288.04287,3.82114,1.176,5.651,2.00024a5.00006,5.00006,0,0,0,3.06035.422c4.82468-.6686,9.68971-1.35464,14.51373.33619a17.77856,17.77856,0,0,0,4.886.80529c2.5811.1382,5.17792-.02423,7.75949.10926a11.16343,11.16343,0,0,1,3.72677.81821,53.12669,53.12669,0,0,1,11.45549,6.672c1.17559.89647,2.38791,1.7444,3.57537,2.62534.74207.55048,1.40663,1.23486,2.42157.372a1.55765,1.55765,0,0,1,1.30333-.08869c2.40356.9049,4.75376.04944,7.12682-.11094,2.39014-.16153,4.78976-.37952,7.177-.30567a15.68969,15.68969,0,0,1,3.672,1.01174,23.26663,23.26663,0,0,1,6.33564,2.60417c1.21381.78242,3.03609.59243,4.56541.92813.59618.13085,1.53106.39329,1.64374.78692.86749,3.03193,4.44476,3.84861,5.42671,6.8138a2.94519,2.94519,0,0,0,2.11542,1.58493c1.63654.14232,2.33116,1.10785,3.17938,2.26875a11.52169,11.52169,0,0,0,3.009,2.80076,10.12055,10.12055,0,0,1,4.80665,8.288c.14512,2.11181.21989,4.22847.31765,6.16894a20.39587,20.39587,0,0,1-12.28361,6.22375,1.95376,1.95376,0,0,0-1.04735.30326c-1.83578,1.74208-4.09587,1.73285-6.43133,1.93437a25.428,25.428,0,0,0-5.54082,1.66867,1.90229,1.90229,0,0,0-1.37575,2.11945c.05526,1.74216-.02918,3.48875-.04743,4.7512a31.01885,31.01885,0,0,1,2.18085,3.373,41.15635,41.15635,0,0,1,1.87515,4.87426,5.66911,5.66911,0,0,1,.13347,2.16848,3.209,3.209,0,0,0,.7249,2.796,3.834,3.834,0,0,1,.6135,2.324,74.26474,74.26474,0,0,1-.934,15.99147c-1.03116,5.54392-.48932,11.22248-.25387,16.84714a50.85934,50.85934,0,0,1-.19476,9.321c-.48212,3.43678-.0063,7.00261-.01912,10.51194-.01486,4.05388-.10733,8.10748-.16612,12.17379l-1.13437.10242c-.02866,1.98213.0674,3.77833-.1054,5.54828-.36958,3.78334-.65315,7.50972.4529,11.26756.35333,1.2-.255,2.66551-.3369,4.01477-.18372,3.02175-2.11233,5.09546-3.86561,7.26708-4.41368,5.46708-8.96058,10.875-15.48389,13.88791a13.59456,13.59456,0,0,1-11.2892.1767,57.08492,57.08492,0,0,1-17.12234-11.56421,33.333,33.333,0,0,1-5.93436-6.91329c-1.44057-2.45552-2.60271-5.38755-1.0557-8.40179,1.29812-2.52939,2.28372-5.24072,4.43757-7.26957a10.02285,10.02285,0,0,0,2.79316-5.31132,8.58984,8.58984,0,0,1,3.69285-5.63139,2.64219,2.64219,0,0,0,.98388-1.75879c.56735-6.13753,1.06546-12.28166,1.53975-18.42727a11.15349,11.15349,0,0,0-.15878-2.72259,47.40133,47.40133,0,0,0-1.27042-6.22477,22.21211,22.21211,0,0,0-2.441-5.20026,3.28138,3.28138,0,0,1-.45471-3.11534c1.57613-4.14774.6307-8.43941.55473-12.62676-.044-2.41747-.96918-4.82248-.403-7.35466.13624-.60872-.36839-1.37645-.62363-2.05393a14.39321,14.39321,0,0,1-.86637-6.19114c.13671-2.16817-.81312-4.41342-1.35-6.60918-.1271-.52-.69067-.95806-.74547-1.467-.31421-2.91263-2.66128-4.25977-4.47836-6.03065-3.19533-3.11409-7.42479-4.75888-10.78331-7.62022-1.49464-1.27353-3.47763-.6647-4.89789-1.45312-1.41514-.78559-2.57067-1.8241-4.311-2.18858-9.20791-1.92851-18.50194-2.07808-27.84166-1.73765a19.78572,19.78572,0,0,1-7.66037-.89516,8.53718,8.53718,0,0,0-2.70737-.50973q-14.80006-.31533-29.602-.54957c-1.84752-.03123-3.7038.112-5.54246-.01648-1.59933-.11175-3.1805-.70135-4.76838-.69685-1.5322.00434-3.06139.71819-4.59508.73139-3.13118.02693-6.27324-.10162-9.395-.35861-4.87585-.40138-9.73822-.96655-14.60732-1.45079a4.28872,4.28872,0,0,0-1.63067-.02349c-3.81979,1.20376-7.7238.13866-11.57681.45519a10.85734,10.85734,0,0,1-3.07325-.72012c-1.33774,1.392-2.95827,1.548-4.85009.665a4.98968,4.98968,0,0,0-5.02065.40589,3.75088,3.75088,0,0,1-3.66893.38032,10.4931,10.4931,0,0,0-3.54677-.39816c-6.56105-.14657-13.12269-.30921-19.68489-.339-2.11314-.0096-4.22428.46974-6.34286.546-4.04394.14551-8.172.688-12.11818.09255-4.4371-.66956-8.91381-.85661-13.32786-1.5936a11.30453,11.30453,0,0,1-2.11428-.63326,6.8476,6.8476,0,0,0-5.13748-.13156,4.87718,4.87718,0,0,1-3.16594-.097c-2.22216-.5349-4.59885-.44175-6.80918-1.0081-4.86133-1.2456-9.70717-.73484-14.57433-.30326-.72414.0642-1.447.14122-2.34277.22925-.80269-2.33373-2.51274-2.58083-4.65543-2.20522-5.86648,1.02841-11.78915.65039-17.69363.43876a4.44665,4.44665,0,0,1-2.48065-.95079,4.35838,4.35838,0,0,0-4.38849-.725,29.75005,29.75005,0,0,1-3.23078.28491,51.41039,51.41039,0,0,0-6.68272,1.35516c-3.18716.99521-6.30289,1.954-9.73043,1.49706-1.21952-.16256-2.51867.36765-3.79043.48359q-5.21853.47574-10.44625.84608a6.61215,6.61215,0,0,1-1.57706-.33611,6.44119,6.44119,0,0,0-2.13575-.32907,8.13938,8.13938,0,0,1-5.13193-.51517,1.88557,1.88557,0,0,0-1.57174.06009c-2.69748,1.74784-4.90874,1.04009-6.52346-.92479-2.051.05791-3.737.05547-5.41458.17329a9.56446,9.56446,0,0,0-2.62466.533,11.2408,11.2408,0,0,1-5.94509.66215,28.30988,28.30988,0,0,0-5.50816-.22417c-6.18465.18742-12.3675.43861-18.54972.6968-2.66827.11144-5.33165.35319-8.00039.4317-1.44886.04263-2.95092.22908-4.27191-.74623-.31176-.23019-.88348-.14131-1.3358-.14325-6.0925-.02623-12.19531-.25831-18.27315.03146-2.95317.14078-6.02961.11942-8.8984,1.2669a9.09481,9.09481,0,0,1-2.17682.30143c-2.00707.25948-4.01172.53965-6.02191.77213a18.84825,18.84825,0,0,1-2.48237.1194c-2.58733-.04441-5.17847-.0545-7.75919-.21945a28.37241,28.37241,0,0,1-4.89612-.73627,7.71975,7.71975,0,0,0-4.87345.29c-.56143.22423-1.47334.59767-1.74184.3591-1.51813-1.349-3.08481-.52935-4.70012-.46712a49.06113,49.06113,0,0,1-7.42131-.36767c-4.12462-.47084-8.22893-1.11911-12.34427-1.67377a6.86387,6.86387,0,0,0-1.92519-.083c-2.52854.39032-4.925.78566-7.58827.01987-2.2067-.6345-4.75634-.10084-7.15293-.04149-1.46671.03633-2.93231.14053-4.39686.23825-3.91065.26093-7.82417.491-11.729.82261-1.8657.15842-3.68366.31649-5.39657-.66962a2.29809,2.29809,0,0,0-1.05383-.28775q-6.91479-.15249-13.83049-.26036c-.36761-.00626-.79131.17151-1.09573.043-3.2771-1.38287-6.57983-.19219-9.83929-.02712-8.02447.40639-16.03824,1.05128-24.048,1.70229-1.912.15541-3.77081.67736-5.68494-.07206-.42838-.16773-1.05613.20811-1.59858.29082-1.72983.26375-3.4565.567-5.19549.74758-5.46117.56716-10.961.40132-16.42131,1.39376-4.22433.76781-8.61805.5643-12.92395.93687-3.11389.26943-6.20712.777-9.31012,1.17423a3.10723,3.10723,0,0,1-1.34965.11215c-3.19986-1.25-6.5676-.59276-9.84518-.91251-3.37549-.32931-6.71426-1.4088-10.16018-.63225-4.60994-1.22511-9.23484-2.39829-13.81925-3.71246-1.12282-.32189-2.10517-1.56771-3.16655-1.58677-2.84083-.051-5.2522-1.38092-7.8741-2.03194a22.49367,22.49367,0,0,0-8.11812-.92373A31.57308,31.57308,0,0,1,764.21,49.69c-2.46138-.53587-5.107-.22725-7.67023-.29264a7.16812,7.16812,0,0,0-1.38436.007c-1.63129.28177-3.30837,1.01458-4.864.80458-1.39615-.18847-2.62861-1.44648-3.98791-2.12307a3.17334,3.17334,0,0,0-1.81732-.30265c-3.98694.671-4.3362.68385-8.32054-.34656-1.17191,1.64932-2.803,1.91976-4.769,1.32047-1.76166-.537-3.51395-.90161-5.17393.61919-.99019.90712-1.81836-.20275-2.4754-.93353l-2.35456.93667c-.53436-.65924-1.051-1.29664-1.68339-2.07681-1.13631.40968-2.32639,1.59758-3.65753.16766-.26219-.28169-1.30454-.17425-1.7574.11426-2.57861,1.64277-5.45443,1.55348-8.29983,1.52781-11.73867-.10589-23.47677-.26984-35.21528-.40134-4.78045-.05355-9.56133-.11491-14.34186-.10673-4.78365.00817-9.56758.07814-14.35066.159-4.70829.07963-9.421.38563-14.12172.24911-3.02265-.08778-6.01633-.91108-9.04271-1.19549-3.5807-.33651-7.18223-.45493-10.77577-.64774a2.53637,2.53637,0,0,0-1.35949.13733c-4.18626,2.57952-8.60344,1.05226-12.905.64592a32.48114,32.48114,0,0,1-7.17026-1.74166,7.77046,7.77046,0,0,1-3.111-2.16337,20.63664,20.63664,0,0,1-4.55676-8.46724c-.29139-1.06744-.70392-2.10662-.92986-3.18619-.53084-2.53722-2.71781-3.1265-4.65608-3.74264-1.02336-.32529-2.05041.58777-2.51,1.73194-1.26182,3.14067-3.29789,6.02462-3.1037,9.64892a8.19392,8.19392,0,0,1-.44667,2.01953c-1.92517-.04418-2.85995.986-3.59326,2.7337a5.68092,5.68092,0,0,1-2.91254,2.74038,23.26815,23.26815,0,0,1-6.658,1.65493c-5.151.40063-10.32857.45264-15.49391.67934a56.98459,56.98459,0,0,1-12.68752-1.20078c-3.2136-.58093-6.53584-1.13889-9.84273-.15246A3.96545,3.96545,0,0,1,514.034,48.504c-3.7264-1.14606-7.48665-.79853-11.2634-.44563-1.65126.15429-3.31307.24278-4.97128.26237a10.968,10.968,0,0,0-5.094.90619,11.78948,11.78948,0,0,1-4.3319.6793c-6.54123.46859-13.08729.87-19.629,1.33305-1.27785.09046-2.54392.34694-3.91849.54143-.23435-.42286-.40748-1.19941-.82964-1.374a2.94058,2.94058,0,0,0-1.776.26816c-2.63466.89452-5.24,1.83873-7.85441-.10623-.2997-.223-.87507-.12811-1.31556-.09279-.36047.0289-.70658.25939-1.06576.27939-2.89421.16113-5.78952.36505-8.68569.38577-.74757.00535-1.49948-.59215-2.58143-1.05469a16.19366,16.19366,0,0,0-2.404,2.28777c-.802,1.11985-1.636,1.3021-2.44723.33039a2.41835,2.41835,0,0,0-3.15276-.77013,5.07375,5.07375,0,0,1-2.12022.15876c-1.75494-.11817-2.30835.26093-2.69557,1.94156-.21176.91914-.47715,1.82592-.73152,2.78808-2.01158-.69037-1.01076-1.8854-.97826-2.98394-1.8603.06658-3.67535.09617-5.4834.22428a2.386,2.386,0,0,0-1.123.63815c-.83982.67493-1.87308,1.24248-2.73891.54356-.52752-.42583-.50018-1.539-.71422-2.315-1.43131-.22753-2.95123-.55992-4.48762-.67829a6.72581,6.72581,0,0,0-2.66873.36784c-1.30133.45657-2.51823,1.148-3.79137,1.692a5.00908,5.00908,0,0,1-5.85732-.84421,8.50339,8.50339,0,0,0-7.44171-2.14595,4.36617,4.36617,0,0,1-2.42468-.10263c-3.43345-1.49546-6.725.02107-10.0506.39708-.783.08852-1.47128,1.01491-2.31555,1.639-2.81567-2.61991-6.62849-1.57828-9.89561-2.668a1.67953,1.67953,0,0,0-1.05883.23331,18.41466,18.41466,0,0,1-7.031,1.30888c-1.41185.075-2.70236.25836-3.75481-1.08516-.25455-.3249-1.43084-.27414-1.95089.01782a5.77822,5.77822,0,0,1-5.55942.30681,2.54011,2.54011,0,0,0-2.83545.46481c-1.39846,1.12766-2.79,1.40713-4.335-.05669-1.945,2.95239-4.49919.65109-6.78472.91408-.257.02958-.53147-.1573-.80406-.18728-2.62348-.28854-4.657-2.54581-7.77747-1.65768-2.48888.70839-5.31694.20728-7.99343.28059-1.73578.04754-3.46972.1626-5.358.25492-.26957.6477-.57231,1.37525-.87881,2.11176-2.08264.11905-2.58245-1.77067-4.01563-2.69817a10.0796,10.0796,0,0,1-5.99453-.309c-1.01036-.36012-2.43161.37458-3.65108.6768-1.04355.25862-2.06152.61911-3.0981.90831-.2616.073-.57731-.02156-.82387.07456-3.72758,1.45355-7.452.32395-11.17652.0067-1.92336-.16383-3.84615-.3343-5.57574-.48491-.34989.27973-.53822.36347-.62107.50777-.42483.73985-.32534,2.11324-1.61132,1.87345-1.534-.286-.69866-1.60677-.78739-2.51263a1.28358,1.28358,0,0,0-.08294-.33591,53.54592,53.54592,0,0,0-6.219-1.15478c-9.86441-.67732-19.73863-1.1683-29.62175-.33354a3.75879,3.75879,0,0,0-1.82425.48723c-3.67572,2.66343-8.12187,3.47115-12.24409,4.99135-2.95924,1.0913-6.253,1.24385-9.35352,1.99668a15.00582,15.00582,0,0,0-4.59421,1.82857,5.43285,5.43285,0,0,1-5.75751.26151,8.969,8.969,0,0,0-5.26987-.953c-7.00388.25283-14.0077.511-21.01286.7237a61.90462,61.90462,0,0,0-9.01605.48465,41.87778,41.87778,0,0,1-12.50476.63046c-1.43949-.18371-2.95534-.3368-3.79026,1.44886-.206.44053-1.04244.65466-1.63158.83-.70282.20913-1.47529.18651-2.17563.40116-2.12257.65055-3.335,1.94675-3.01194,4.02358.4882,3.13863-1.92058,4.83543-3.05761,7.15271a1.568,1.568,0,0,1-1.43771.44185,12.05117,12.05117,0,0,0-5.43334-.57676,5.75272,5.75272,0,0,1-2.08956-.64849c-1.97968.9702-2.5557,2.64584-2.73168,4.73552-.337,4.00135.57257,7.33612,4.227,9.51958a4.09549,4.09549,0,0,1,1.91929,3.18747c.46333,3.09723,1.14651,6.14939-.153,9.24586a6.91212,6.91212,0,0,0-.08426,2.54709,38.68815,38.68815,0,0,0-3.23656,3.12483c-.29167.34844-.007,1.17932.01579,1.84457l5.76482.08334c.989-2.28941-1.64938-4.04557-.44624-6.36437,1.52759,1.11082,2.99388,2.04248,4.3,3.16115,1.607,1.37637,1.70308,3.12137.94291,4.96695a12.85836,12.85836,0,0,0-3.592.33864c-.97151.38726-1.66369,1.43046-2.54952,2.09007a9.3917,9.3917,0,0,1-2.78275,1.709,2.4531,2.4531,0,0,0-1.88921,2.09152c-.06129.27-.10972.54409-.14415.8188-.21677,1.72972-.42792,3.46014-.65546,5.30837l1.97305,1.14945,1.20389,5.93537c-2.559.69951-4.95441,1.35431-7.45093,2.03676l1.35919,3.27767-3.89219-.05627c-.22678,2.72757-2.5683,4.80438-2.48887,7.8186.03373,1.27981-.32478,2.56508-.39251,3.85377a4.236,4.236,0,0,1-1.67283,3.55958,4.94681,4.94681,0,0,0-1.909,4.40433c.10117,1.56645-.27892,3.33649.3318,4.65655.88739,1.91806.80768,4.65942,3.72825,5.30376,1.48556.32776,1.90032,1.56229,1.67628,3.04837a14.02219,14.02219,0,0,0,.0607,2.3,17.51765,17.51765,0,0,1,1.87041-.45247,2.53267,2.53267,0,0,1,3.03681,2.12494,10.22427,10.22427,0,0,1-.1596,3.562c-.37936,1.69484-1.17636,1.85116-2.47386.65621a1.78818,1.78818,0,0,0-1.19977-.61614c.16375.89381.33986,1.78561.48827,2.682a24.87744,24.87744,0,0,1,.55606,3.75849c.02157,2.28026.36907,2.5679,2.56974,1.69847.32284-.12755.65442-.233,1.10552-.39226.18143.64206.36054,1.15747.47049,1.68722a41.6853,41.6853,0,0,0,1.00931,4.8376c.456,1.35586,1.87968,2.12936,2.306,3.69426.42509,1.56031,1.98652,2.013,3.50862,1.69117.71685,1.048.80823,2.09092-.1819,2.50892-.60164.254-1.55765-.33139-2.41569-.55571-.672,1.10074.55189,1.3047.92064,1.79925-.26112,1.69544-.50957,3.30864-.68774,4.46553,2.32887,2.4425,4.34147,4.55327,6.529,6.84756l3.02025-.44981c.13965,1.63826-.4375,2.31523-1.6427,2.39664-.82416.05568-1.65985-.08238-2.4883-.05923-.6819.01907-1.36072.1478-2.22189.24925.262,2.20991.43717,4.09429,2.25561,5.82685-.79878.10024-1.30105.31551-1.6574.171a5.53009,5.53009,0,0,1-1.29289-1.024,2.82728,2.82728,0,0,0-3.30686-.66254,3.02755,3.02755,0,0,0-1.74254,2.934q.17,4.42917.42351,8.85494c.10217,1.78192.27819,3.5596.43152,5.47l1.71772-.94706c.28887,1.734.35677,3.15113-.85727,4.44627-.75258.80284-1.23123,1.867-2.00067,2.64872-2.98661,3.03417-3.49636,7.0122-4.23458,10.89437a4.16038,4.16038,0,0,0,.42572,1.82749,20.31743,20.31743,0,0,1,.838,2.33292c.35,1.83087-.11438,2.44562-1.94573,2.871-.359.08338-.72242.15231-1.07574.25553-2.40462.70251-2.69045,1.30608-1.81556,3.56074.39763,1.02476.60476,2.12727,1.04262,3.1316.54246,1.24426.95412,2.756,1.91584,3.56676,2.67247,2.253,1.52067,4.70669-.74952,6.10823a3.67945,3.67945,0,0,0-1.97087,3.13107,4.5303,4.5303,0,0,0-3.81555,3.74194,18.78442,18.78442,0,0,1-1.82182,3.6541,13.89022,13.89022,0,0,0,2.56978.91844c1.60081.23912,1.92919,1.208,1.75834,2.56647a9.22016,9.22016,0,0,1-4.53482,7.20236c-.46206.27421-.93057.53759-1.74172,1.00522,1.57015,2.11533,1.715,4.77856,3.617,6.67492,1.51939,1.51494,1.31165,2.54048-.42875,3.97118a7.53459,7.53459,0,0,0-1.205,1.46975c-.3753.52046-.57412,1.32953-1.06788,1.57559-2.29306,1.14287-1.9235,2.81318-1.10544,4.62978.59832,1.32867,1.20306,2.65489,1.83323,3.96866.799,1.66568,2.13,1.82425,3.7235,1.3057.681-.22161,1.39993-.32664,2.20124-.5071l.74746,3.34044c-1.96847,1.47927-4.0191,3.02061-6.07,4.56153-2.2,1.65283-2.45678,2.45829-1.696,5.65028l2.24638.335c1.40855,1.05253.80454,4.76239-1.156,7.09117.924,2.03438,2.21431,4.11.52043,6.56955l-2.33616.332c-.424,3.67058.49072,7.09266.9382,10.54564.04589.35414.56832.62931.81612.979.28466.40178.74228.85566.72462,1.26983-.16862,3.95174,1.10418,7.65413,1.8852,11.43978.37276,1.8067.71842,3.62429,1.21632,5.39766.23688.84365.60022,1.979,1.25275,2.32083,2.51526,1.31776,2.43407,3.35152,1.77375,5.82078l2.38872-.53224c1.55384,1.28465.1694,2.48773.17052,3.73836,1.75285,1.94451,3.50226,3.9551,5.34,5.88131a7.433,7.433,0,0,0,2.04261,1.35267c.73577.37339,1.61056.49368,2.30913.91573,2.14195,1.29421,4.26537,2.43061,6.93155,2.22132a3.66166,3.66166,0,0,1,2.506,1.01188c2.07638,2.03259,4.603,2.42341,7.31187,2.4794a11.92575,11.92575,0,0,1,2.143.46142c1.07855.22937,2.28934.87,3.21449.58671,2.413-.739,4.24155.5952,6.27753,1.24126a4.88238,4.88238,0,0,0,.5304.16107c6.04527,1.18011,12.08792,2.37385,18.13826,3.52731,3.52427.67194,7.04138,1.4373,10.59678,1.87675a63.89992,63.89992,0,0,0,15.43952.32334c2.55851-.30457,5.13572-.44964,7.69711-.73331a12.72339,12.72339,0,0,0,7.33426-3.48958,40.728,40.728,0,0,1,7.88655-5.57206,12.04154,12.04154,0,0,1,5.64216-1.04637,89.739,89.739,0,0,1,10.48794.759,15.48548,15.48548,0,0,1,4.08163,1.61059c2.18623.97974,4.32515,2.06744,6.52628,3.011a19.58046,19.58046,0,0,0,10.03051,1.39414c2.38191-.25975,4.87954.13695,7.17705-.3977,3.48352-.81055,6.898-.39152,10.30456-.07046a150.60007,150.60007,0,0,0,26.54127-.1947,21.89251,21.89251,0,0,1,2.21771.01365c7.19765.14239,14.37016.185,21.53378-.9659,3.79737-.61014,7.71781-.43373,11.57743-.69159a15.99154,15.99154,0,0,0,2.94564-.66491c4.26833-1.12776,8.73923-1.37671,12.89143-3.0455a8.3608,8.3608,0,0,1,3.00266-.33922c5.62247-.02885,11.24607.04971,16.86751-.032,4.417-.06416,8.83449-.49736,13.246-.423,5.62529.09484,11.2429.58019,16.86743.8098,3.14511.12839,6.28191.09418,9.195,1.60455a3.1205,3.1205,0,0,0,1.826-.05087c1.15531-.23239,2.27574-.67056,3.43728-.83271,2.956-.41275,5.92667-.72034,8.89146-1.07016.18352-.02162.39092-.11207.54674-.05666,2.64248.9392,5.337.0408,8.00536.21752a41.69606,41.69606,0,0,0,5.21854-.25521,9.67353,9.67353,0,0,1,2.18762-.1489c7.13425,1.27453,14.31608.71248,21.48153.57392a53.97285,53.97285,0,0,0,9.84806-.67106c6.52108-1.35047,13.05772-.752,19.58429-.67622,2.53283.02938,5.05566.84435,7.58478,1.29168a56.52221,56.52221,0,0,0,5.9834.99278c2.73689.18377,5.52355-.41876,8.19179.78138a2.68,2.68,0,0,0,1.82932-.31664,41.00082,41.00082,0,0,1,14.20187-3.32457c2.94936-.19315,5.89079-.50586,8.83967-.70829a7.5789,7.5789,0,0,1,2.43468.17233c2.49146.666,4.91363,1.70587,7.44055,2.0949,3.06181.47129,6.20277.43222,9.31039.59613.35957.019.736-.15449,1.08621-.10571,2.26365.31544,4.51191.78309,6.78444.9854,5.78675.51522,11.58365.91737,17.37646,1.36472,3.5386-1.20592,7.16019-1.09353,10.83722-.93334,1.6065.07,3.23933-.65038,4.8129.31038a1.23925,1.23925,0,0,0,.81042.00565c5.14735-1.16505,10.28123-.25616,15.41834.08847a5.243,5.243,0,0,0,1.09908.10426c5.87621-.9147,11.769.06272,17.65846-.1602,5.81247-.22,11.64335.09,17.46617.09152,8.93747.00225,17.88074.1281,26.81083-.14645,9.77394-.3005,19.5356-.99725,29.30279-1.519,1.47572-.07882,2.95181-.19687,4.42827-.20478,1.99649-.01071,4.1347-.43289,5.51175,2.07955,1.88076-3.01777,4.55325-2.57327,7.09391-2.56048,7.94712.04,15.89411.11234,23.84113.10735a28.78631,28.78631,0,0,0,3.78811-.51547c2.35933-.32092,4.71166-.94017,7.05165.23115a3.3341,3.3341,0,0,0,1.79663.00563c1.06016-.15423,2.10025-.5221,3.16122-.583,5.53307-.3175,11.07146-.54025,16.60436-.86022,1.1785-.06818,2.33679-.439,3.51412-.59893a6.09042,6.09042,0,0,1,1.56133.08369c.34269.04375.80518.36782.9906.24066,2.67319-1.83414,5.10962-.14786,7.61747.4479a6.29666,6.29666,0,0,0,.66559.07388c.499-.554,1.047-1.16251,1.67083-1.85513,2.37623.22481,4.91476-.35515,7.22094,1.00458a1.86374,1.86374,0,0,0,1.06663.24583c2.60555-.27413,5.23139-.458,7.80142-.9363a14.261,14.261,0,0,1,6.83222-.07542,10.61612,10.61612,0,0,0,4.61786.11521c2.54683-.35813,5.16014-.2141,7.73492-.416,1.24922-.098,2.46384-.58473,3.71341-.74452a68.52629,68.52629,0,0,1,7.11182-.69907c3.68273-.08314,7.39788.35385,11.04741.01386a33.35064,33.35064,0,0,1,7.93151.21056c1.98212.286,3.90978.98877,5.89463,1.20738,3.76139.41429,7.60251.30236,11.30938.97065,6.86267,1.23719,13.79212.65168,20.66816,1.23127.18011.01516.44449.20629.51767.14213,2.03885-1.78859,4.38743-.5414,6.58826-.69076a2.82248,2.82248,0,0,0,.8254-.024c3.66-1.52026,7.64541-.60905,11.40164-1.5376,1.3831-.34195,2.92858.019,4.39673-.03246,7.84475-.2751,15.68711-.62385,23.5331-.85322,3.5-.1023,7.00631.01408,10.50971.034a7.03938,7.03938,0,0,0,1.107.02694,11.42719,11.42719,0,0,1,9.1411,2.09051c.5826.44181,1.72.27572,2.58365.19551,1.45514-.13515,2.89-.56486,4.34361-.62466,4.1515-.17082,8.31442-.11527,12.45909-.37135,1.38149-.08539,2.72132-.84411,4.59194-1.46484,7.06939.78936,14.61666,2.78582,22.4375,2.151.97212-.07892,2.00247.55883,3.48488,1.01046.4452-.07672,1.45128-.20956,2.438-.42935a8.53747,8.53747,0,0,1,4.822.49791,23.82952,23.82952,0,0,0,12.68146,1.27419c5.926-1.17743,11.9725-.80838,17.95586-.17849a101.473,101.473,0,0,0,16.55194.88755,112.29316,112.29316,0,0,1,13.55547-.0097c9.66993.61294,19.34224-.22261,29.00695.269a29.48262,29.48262,0,0,0,3.57444-.32174c.72654-.053,1.77795-.33705,2.13284.024,1.44307,1.46812,2.64909.46582,4.00348-.01658a8.60929,8.60929,0,0,1,2.92475-.531c8.39762.1014,16.794.27923,25.19125.40714,5.819.08863,11.66742.51884,17.44971.08739,5.38761-.40194,10.68188.14381,15.9987.4327,14.2157.77238,28.44349.203,42.65636.62792,5.13093.15335,10.243.94782,15.363,1.45567.17892.01772.4002.19718.51956.13735,2.331-1.16927,4.79646-.75807,7.2418-.6723,1.54693.05432,3.09753-.00458,4.64616.017,4.154.05786,8.30748.15376,12.46155.1843a24.562,24.562,0,0,1,3.311-.2188c5.8719.88235,11.43134-1.95214,17.27455-1.38027a7.48826,7.48826,0,0,0,2.40021-.53984c.53153-.138,1.08833-.52437,1.57279-.44183,2.84884.48561,5.38554-.45475,8.03891-1.28756a12.94621,12.94621,0,0,1,5.21472-.02154c3.98208.47961,7.91237.626,11.778-.69289a3.7194,3.7194,0,0,1,4.3698,1.25914c1.592-1.35582,3.31538-.93737,5.06554-.65451a8.71118,8.71118,0,0,0,5.67211-.55794,6.09976,6.09976,0,0,1,3.22085-.35638c5.14254.50262,10.26859,1.18127,15.41429,1.64317a20.68542,20.68542,0,0,0,5.22316-.28741,6.32125,6.32125,0,0,1,4.02716.43469,8.09133,8.09133,0,0,0,5.38514.64c3.87325-.79793,7.78833-1.27629,11.58471-2.58422a13.76353,13.76353,0,0,1,5.22051-1.087c1.13167.05618,2.80348-1.27678,3.42285-2.42249,1.1767-2.17753,3.28969-2.95331,5.10587-4.0705a4.32859,4.32859,0,0,0,2.14832-2.60188,31.93593,31.93593,0,0,1,1.42358-3.27278c1.057.55355,1.76177.92257,2.64407,1.38455,1.21193-2.69433,2.46232-5.22942,3.4657-7.85875a5.32751,5.32751,0,0,0-.243-2.69272c-.30579-1.44339-.78988-2.86356.04554-4.39571.322-.02419.67361-.05395,1.02565-.07655,1.90134-.1221,2.5247-.66318,2.68062-2.38985.46229-5.11867,1.06047-10.23125,1.30839-15.36058a64.924,64.924,0,0,0-.55761-8.24088c-.15328-1.91326-.34615-3.82334-.51474-5.73541-.01512-.172-.0545-.418.0376-.5121,2.14226-2.19157,1.56824-5.08169,1.92184-7.704a5.88554,5.88554,0,0,1,2.1442-4.02113c.48984-.40141,1.15787-.77269,1.36-1.30408a29.10237,29.10237,0,0,0,1.687-5.49173c.15759-.95164-.49655-2.03778-.82933-3.22623.29888-.86058.673-1.95746,1.06213-3.04886.15358-.431.21967-1.00255.5319-1.25,2.307-1.82867,2.56661-4.64861,3.61007-7.10042a5.53667,5.53667,0,0,0,.41929-3.7276,3.09944,3.09944,0,0,1,.104-2.15088c1.05742-1.69295.90355-3.49924.96648-5.342.08812-2.58189.48732-5.15432.54807-7.73566.06234-2.64417.23341-5.37167-1.67-7.61591a1.77961,1.77961,0,0,1-.3691-.73653c-1.2081-5.45818-4.14732-10.40863-4.38262-16.18423-.22877-5.6187-1.065-11.21181-.12649-16.84327a8.50055,8.50055,0,0,0-.2068-2.707,7.07667,7.07667,0,0,1,.87572-5.05046,23.19825,23.19825,0,0,0,1.54422-3.4956,27.99747,27.99747,0,0,1,8.28328-11.249,5.91538,5.91538,0,0,1,3.11114-1.00186c3.119-.29675,6.257-.384,9.38167-.629,5.32663-.41779,9.11,2.11621,11.5841,6.49786a99.95743,99.95743,0,0,1,4.64185,10.31934c.60764,1.43593.99493,2.96577,1.46878,4.45728a6.04126,6.04126,0,0,1,.41622,1.58994c.09052,3.41574.18114,6.83346.14246,10.24909a4.35136,4.35136,0,0,1-.84939,2.24531,5.97429,5.97429,0,0,0-.97969,4.72907c.39564,2.17912.71671,4.37387.994,6.57147.12454.98746.04165,1.99949.09845,2.99777a6.0825,6.0825,0,0,0,.26136,1.50046c.10809.33635.58908.65016.54886.92158-.35725,2.415,1.151,4.33162,1.62514,6.50388.50757,2.325.55529,4.74792.857,7.12136a23.09458,23.09458,0,0,0,.65616,3.49465,10.41729,10.41729,0,0,0,2.08543,3.322c1.24446,1.62276,1.67841,3.98145,2.07955,6.099a23.82635,23.82635,0,0,1-.0105,4.979c-.0475,1.76833-.06612,3.44021,1.33269,4.90627.48388.50718.3376,1.7164.29954,2.59718-.0566,1.3103-.22539,2.59714,1.40157,3.54167.57042-.67247,1.13036-1.33277,1.74748-2.06033l2.04649.02959c.14445-.20238.30069-.3303.33762-.48657.55025-2.322,1.02265-4.66446,1.64236-6.96739a6.13582,6.13582,0,0,1,3.27011-4.24111,15.8115,15.8115,0,0,0,2.34147-1.90056c2.64844-2.01852,5.87059-2.46453,8.97586-3.22874.8772-.21593,1.74672-.46308,2.62252-.685a9.95458,9.95458,0,0,1,1.85774-.42254c2.11789-.11274,4.24326-.09657,6.35882-.2353a8.68315,8.68315,0,0,1,5.13177,1.59377c2.65007,1.55021,4.38673,3.86338,6.05939,6.20927,1.59036,2.23071,3.468,4.649,3.892,7.205.39814,2.4,1.34942,4.74121,1.37319,7.14378.03766,3.76566-.32255,7.53745-.57471,11.30258a20.97113,20.97113,0,0,0,.96029,6.1865,2.11071,2.11071,0,0,1,.12843,1.06514,55.1164,55.1164,0,0,0-1.30387,6.9455c-.11518,2.03713-.61959,4.3741,1.66576,5.96136-1.868,1.45384-2.12453,3.251-1.88353,5.29783a35.94517,35.94517,0,0,1,.02369,4.43147c-.00893,1.26407.11849,2.44566,1.83158,2.76347a9.631,9.631,0,0,1-.93868,1.87387,4.65244,4.65244,0,0,0-.91777,3.89317,5.12244,5.12244,0,0,1-.25636,2.90284,11.20829,11.20829,0,0,0-1.34244,6.41006,5.09412,5.09412,0,0,1-2.20772,4.771c-.572.43764-1.308,1.00126-1.43582,1.618-.46848,2.25918-1.91309,3.80185-3.195,5.60008a37.90457,37.90457,0,0,1-5.43119,6.59154c.37978.75676.73284,1.46026,1.2482,2.48748-2.9091.45081-3.92532,2.65751-5.108,4.76a41.95822,41.95822,0,0,1-2.44022,3.4846c.08054.35915.19925.88783.318,1.41651q-.433-.41661-.8661-.83324a12.50578,12.50578,0,0,1-1.64447,2.99186c-3.36872,3.4274-6.80549,6.79311-10.33074,10.05921a19.052,19.052,0,0,1-6.72309,4.21323c-3.82311,1.32078-7.49637,3.09591-11.53226,3.7525-2.549.41471-5.09849.86321-7.66563,1.10847a7.8432,7.8432,0,0,1-2.58693-.68128c-.94968-.26943-1.90659-.51658-2.8455-.81933-.65272-.21045-1.53411-.31353-1.87606-.783-1.63405-2.24379-4.21709-3.19415-6.275-4.84432-.14057-.11264-.38276-.28835-.47813-.23968-2.25163,1.14817-3.80864-1.36615-5.88785-1.10937a1.04947,1.04947,0,0,1-.79126-.17348c-2.73544-3.02678-4.91678-.27749-7.0545.83245-5.3933,2.80013-10.42376,6.36656-16.32677,8.06706-2.17149.62558-4.55385.5303-6.84261.73326-.82706.07337-1.79765-.21173-2.47023.12759-3.28516,1.65688-7.01044.7542-10.35794,1.92632-.43259.15149-1.13369.10248-1.29118.38238-1.09978,1.95365-3.14577,1.8701-4.88948,2.49a5.00507,5.00507,0,0,0-2.25651,1.51344,1.82641,1.82641,0,0,1-2.8682.50706c-.18818,1.194-.32863,2.08449-.48877,3.10032-.73322.243-1.4859.49259-2.38311.79.19422,1.0675.36824,2.02353.572,3.14318a6.25693,6.25693,0,0,1-1.60929.48376,7.12285,7.12285,0,0,0-4.22725,1.71483,8.60484,8.60484,0,0,1-4.57807,1.6622,12.64083,12.64083,0,0,0-5.49372,1.66176c-3.89382,1.91129-7.71483,3.93923-12.05087,4.70156-.444.07806-1.07475.20315-1.25044.51437-1.09664,1.94273-3.56515,1.73559-4.92488,3.243-.33418.37065-4.75294.54929-5.11746.17981-1.19782-1.2138-2.35571-.73011-3.51125-.02551-1.03461.631-2.014,1.34853-3.33667.79838a1.124,1.124,0,0,0-.80847.04262c-4.188,1.93518-8.69693,1.24724-13.07282,1.54337a22.41422,22.41422,0,0,1-4.89665-.56434c-3.01487-.4768-6.0237.87739-9.05875-.0212a2.22454,2.22454,0,0,0-1.69135.689,5.33655,5.33655,0,0,1-3.549,1.28354c-3.21216.28943-6.59395.13361-9.58538,1.127-5.59733,1.85883-11.16193.67586-16.74.76024-2.49438-1.29372-5.07279-.34376-7.61671-.28026-2.84741.071-5.69758.10876-8.53914.28118a4.2103,4.2103,0,0,0-2.20612.84794,2.924,2.924,0,0,1-3.38151.37739c-3.25783-2.00342-6.47955-.63193-9.66216-.0731-2.42863.42641-2.49156.71319-3.88952-1.27038a3.01214,3.01214,0,0,0-2.5522-1.31247c-4.33218-.2733-8.66357-.5822-13.00025-.75067-7.37907-.28664-14.76161-.483-22.14309-.70626-4.61716-.13969-9.27961.09874-13.84149-.47349-6.53791-.8201-13.3015-.84983-19.31516-4.227-1.46956-.82524-3.04615-1.38566-4.55625.17188a1.60912,1.60912,0,0,1-1.54843.06751c-1.30506-.92447-2.43746-.32172-3.62425.15609-.42775.17225-.88829.27123-1.30127.47091-5.02772,2.43111-9.69293.894-14.23474-1.38528-2.29706-1.15272-3.19806-.97672-5.26981.73139a17.40462,17.40462,0,0,1-4.16612,2.0671c-.66812.29324-1.54368.23606-2.09809.64531-2.53663,1.87251-5.737,1.918-8.4881,3.19567a9.89646,9.89646,0,0,1-2.71543.29631c-.7886.10676-1.56242.31907-2.3495.44244-.59434.09312-1.20552.082-1.79833.18176-3.09293.52017-5.74786-1.37282-8.73824-1.5436-3.86015-.2205-7.70527-.70267-11.55754-1.06522a1.47615,1.47615,0,0,0-.81758.02661c-2.43411,1.52566-5.01586.8147-7.53675.45528-2.35782-.33614-4.57918.24983-6.845.64175-1.91892.33186-3.85252.68552-5.47161-.92112a1.57363,1.57363,0,0,0-1.01725-.39656c-2.71657.00944-4.34278-1.6576-5.90734-3.58335a9.82856,9.82856,0,0,0-2.44123-1.75667c-2.00234-1.28007-4.36435-2.0203-5.86147-4.06333a2.25167,2.25167,0,0,0-1.41532-.75027c-1.56971-.1972-3.11477-.33486-4.29277-1.60325a1.12564,1.12564,0,0,0-1.01158-.25932c-1.76967.88388-2.9676-.08384-4.17531-1.152a2.02011,2.02011,0,0,0-.95311-.54275c-1.70005-.22684-2.52567-1.26962-2.67092-3.13818l-2.33774,1.79237c-.26356-.06059-.53757-.044-.5974-.14908-1.23476-2.17166-3.07671-2.89766-5.54633-2.77a19.33563,19.33563,0,0,1-4.33162-.76572,9.53732,9.53732,0,0,1-2.47369.66635c-7.3888.0817-14.77851.07664-22.16786.10727-2.67853.01108-5.35838.0006-8.03515.08213-7.37651.22469-14.7507.54607-22.12841.704a20.49719,20.49719,0,0,1-5.11852-.693,9.2364,9.2364,0,0,0-6.96833.67071,5.19016,5.19016,0,0,1-3.18011.14674c-2.08908-.3999-4.14019-.84076-6.41907-.20654.03962.79607.07736,1.55362.11351,2.28022-1.31658.44784-1.90624-.38686-2.457-1.07632-2.38154-2.98092-5.74149-2.78792-9.00606-2.76568a3.68733,3.68733,0,0,0-2.23265.96389c-1.3463,1.234-2.86963,1.32228-4.58018,1.41429a44.01309,44.01309,0,0,0-6.78682,1.109,5.78709,5.78709,0,0,1-2.91642.0953,31.56292,31.56292,0,0,0-5.20943-.50857c-4.1704-.36227-4.41764-.43637-7.34646-2.11562-2.8938,1.35955-6.02322,1.214-9.09339,1.32534a2.03441,2.03441,0,0,1-1.6217-1.06492c-.304-1.379-1.3823-1.39056-2.307-1.581-1.02157-.21037-2.02041-.72875-3.13572.168a15.20986,15.20986,0,0,1-4.58684,2.831,13.99193,13.99193,0,0,1-5.178.26166,37.949,37.949,0,0,1-4.03-.95659c-2.98764-.56153-5.98988-1.04526-8.98662-1.55823a.48143.48143,0,0,0-.27427.00173c-3.64613,1.889-7.51534.29591-11.26651.6775-1.77067.18015-3.611-.33875-5.42157-.52294a2.01016,2.01016,0,0,0-1.06756.03887c-3.233,1.77323-6.744.50984-10.09356.95615a1.56086,1.56086,0,0,1-.81154-.11043c-4.39519-1.99934-8.983-1.33136-13.57308-1.13769-2.45119.10341-4.9228-.423-7.39081-.519-1.73466-.06747-3.48306.21665-5.21772.14908a43.82349,43.82349,0,0,1-4.56762-.60133,56.55592,56.55592,0,0,0-7.06169-.98864,80.11959,80.11959,0,0,0-9.12058.56937c-2.06371.20128-4.04658.31847-5.54825-1.07723l-6.13061,1.78493c-.94606-1.99556-2.71364-2.19291-4.473-2.189-8.0691.018-15.99034-1.52615-23.99274-2.20149a3.42972,3.42972,0,0,1-1.365-.1621c-2.46423-1.45855-5.11445-1.18128-7.77068-.95129a3.84922,3.84922,0,0,1-.83086-.02027c-7.26665-.962-14.54039-.67442-21.84746-.51813-6.59412.14109-13.20754-.72121-19.81547-1.08673-4.79534-.26523-9.59546-.44778-14.39416-.64863a4.6632,4.6632,0,0,0-1.37182.156c-5.7954,1.54071-11.68368,1.33224-17.577.92115a4.91219,4.91219,0,0,0-3.37971.87153c-1.69778,1.19425-2.099,1.19288-3.03537-.49243-.8529-1.535-1.99549-1.64588-3.47337-1.52579-3.95818.32168-7.92307.55892-11.88438.84389a7.1556,7.1556,0,0,0-2.45458.31447,5.01658,5.01658,0,0,1-4.2265-.10279c-1.78249-.81517-3.14136-1.09068-4.75761.25876-.51531.43016-1.58739.27558-2.401.25308-5.34263-.1474-10.68536-.48017-16.0258-.44131a60.02408,60.02408,0,0,0-7.94895,1.07955,7.31131,7.31131,0,0,1-2.45734.30366c-2.955-.67878-5.77812-.24074-8.71225.30238-3.74986.69411-7.6.846-11.40625,1.2385-.459.04734-.955.29312-1.36342.18378a48.57469,48.57469,0,0,0-9.05963-1.62267,25.70649,25.70649,0,0,0-2.922-.51158c-12.26737.61363-24.51212-.06125-36.763-.52159-6.46405-.24291-12.93923-.21728-19.39976-.5185-5.15828-.24059-10.31941.056-15.4525-.10945-12.571-.40514-25.0957.63917-37.64555.67855a3.65561,3.65561,0,0,0-1.87413.25206,2.44106,2.44106,0,0,1-2.573-.006,5.89075,5.89075,0,0,0-2.15238-.33513c-7.941.0255-15.88313.01553-23.82179.17487-2.17824.0437-4.44845.29157-5.75981,1.59866-1.86167-.11072-3.26806-.27038-4.67334-.261-2.40117.01594-4.81009.0361-7.20055.23614-5.14068.43019-10.27173.97578-15.4067,1.47439a4.65444,4.65444,0,0,1-1.37509.11812c-5.25348-1.17326-10.41393.55118-15.62665.4555-1.27516-.02338-2.544-.3628-3.81978-.39428a4.63124,4.63124,0,0,0-2.31158.46036,8.54724,8.54724,0,0,1-7.00172.535,21.69043,21.69043,0,0,0-6.78961-.73527c-4.61582-.09494-9.23285-.129-13.84933-.19143-.36915-.005-.73886-.06275-1.10671-.05-8.47863.2933-16.9555.66137-25.43638.85245a46.41258,46.41258,0,0,1-8.28164-.57587,10.97082,10.97082,0,0,0-7.40569,1.5383,13.04388,13.04388,0,0,1-3.80815,1.54287c-3.45317.665-5.93034,2.75945-8.37052,5.0681-1.9405,1.83593-3.84837,3.93236-6.182,5.06784a35.809,35.809,0,0,1-8.93541,2.53618c-7.01638,1.34074-14.1545,1.18438-21.25809,1.35295-11.173.26508-22.34688.51622-33.5218.66916a16.30345,16.30345,0,0,0-6.70226,1.1224,10.86927,10.86927,0,0,1-6.25021.69121,10.06427,10.06427,0,0,0-2.97958.16674c-3.08944.45616-6.21246.79083-9.24426,1.50478-3.82984.90189-7.67428.45237-11.51214.6003a3.20964,3.20964,0,0,0-.98.39264ZM50.69775,238.20993c2.84147-2.22194,3.45671-5.51049,5.34822-7.9196.094-.11968-.00862-.37592.05224-.54224a21.76908,21.76908,0,0,1,1.38194-3.54,2.76282,2.76282,0,0,0,.42259-2.82883c-.81337-1.66379-.26987-3.1165.36979-4.73684a5.8403,5.8403,0,0,1,3.34135-3.182,4.84328,4.84328,0,0,1-2.15411-3.51246c-.2098-2.07426-1.37158-2.716-3.693-2.56808-.827.0527-1.40282-.0756-1.53877-1.23193a12.79176,12.79176,0,0,0,2.93861.00812c2.98128-.71091,3.28773-.61879,4.16317,2.16825.28612.9109.533,1.75444,1.8506,1.52417a3.56709,3.56709,0,0,0,.00342-.8581c-.62321-2.29207-2.11261-4.32983-1.96161-6.86517.018-.30312-.6453-.96553-.82849-.91084-1.30133.38839-1.92368-.77215-2.84782-1.07222-2.5876-.84025-3.08374-2.52194-2.84713-4.91073.2022-2.0414-.76334-2.99882-2.79144-3.351a30.94363,30.94363,0,0,1-3.23754-.89746c.60192,2.22165.21945,2.603-2.60649,2.154a4.33046,4.33046,0,0,0-.54363-.09488c-.99326-.02773-1.58758.40981-1.60461,1.453-.0507,3.1042-.09185,6.20856-.137,9.33364,1.6803.91994,3.15775,2.11894,2.711,4.12735-.48392,2.17546.22336,3.91727,1.03726,5.80995,1.02181,2.37617.71333,5.32789,3.1243,7.1015.45434,2.41124.90868,4.82247,1.41507,7.51l-3.78026-.05465a6.7001,6.7001,0,0,0-.08447,2.40041C48.85489,234.48078,49.74049,236.152,50.69775,238.20993ZM94.54393,63.76722c-.65291,2.80017-2.71214,4.95713-2.51653,7.205,1.38613,1.46071,2.31418,2.5035,3.31328,3.473a16.8125,16.8125,0,0,0,3.04406,2.63868,10.58258,10.58258,0,0,0,2.97036.79331l4.41419-.883c-.08426-.74019-.25711-1.66952-.27774-2.60221-.02148-.97152-.28252-2.40259.23314-2.83929,2.0427-1.72994,1.44339-4.30838,2.391-6.3573a3.26536,3.26536,0,0,0,.13064-2.65855c-.95975-1.4165-.36988-2.61367-.00077-3.65052l-2.72122-2.97153a12.30774,12.30774,0,0,1-3.16251,1.16554,14.00488,14.00488,0,0,1-3.53569-.57517c-1.07472,1.65059-1.68229,3.21474-.97824,5.20315.71506,2.01946.27764,2.41833-1.87314,2.20053C95.61161,63.87209,95.24834,63.83689,94.54393,63.76722ZM418.5487,41.779a8.70913,8.70913,0,0,1-.79137-1.41162,2.10749,2.10749,0,0,0-2.27112-1.58818c-1.00189-.00477-1.99718-.35862-3.00475-.43657-2.00276-.15495-2.38405.11524-2.58346,1.59429-.31966,2.37052.08723,3.05029,1.922,3.49017a7.77924,7.77924,0,0,1,2.82828.987c1.94417,1.45357,4.12723,1.50047,6.33388,1.3629,1.74367-.1087,3.4699-.48645,5.20648-.72559a4.47827,4.47827,0,0,1,1.85722-.13131c1.51319.50278,2.88281-.55284,4.51575-.0941,1.3077.36737,3.00064-.40785,4.45869-.87528,1.20817-.38734,2.86959-.77187,3.35778-1.68027a11.52983,11.52983,0,0,1,3.16646-3.9053c.04379-.03337-.10183-.31511-.24173-.72007l-9.14789.54032c-.46456,1.43057-.8411,2.59016-1.26771,3.9039l-2.77077-1.00218c.17016-1.3787.32118-2.60231.47266-3.82957-2.6287.17781-5.023.04989-6.93634,1.75559-.17822.15887-.53356.11152-.80236.17747C420.05418,39.8767,420.05443,39.8777,418.5487,41.779ZM48.87212,258.56321c.66376-1.47125.8875-2.83438,1.68917-3.48129.69375-.55984,2.04352-.3067,3.86611-.48939-2.2053-1.56216-4.54583-2.24069-4.77973-4.60168-.21029-2.1226-.11871-4.27512-.166-6.70678-.65433.04609-1.61968-.17662-2.17785.20158-3.10021,2.10067-5.42547,4.7535-5.41217,8.72507ZM450.93143,39.074l-2.156,1.014.15578.48,8.46557-1.476c-.1066-.5426-.17978-1.0639-.31343-1.56922-.51079-1.93139-.78086-2.05842-2.65256-1.73843C452.44335,36.12416,450.89007,36.85074,450.93143,39.074ZM1284.44936,16.7288c1.51791,2.07161,2.01057,2.27067,4.4856,1.82065-.35328-1.14682.52841-2.75053-1.05813-3.372C1286.53888,14.6534,1285.4128,15.438,1284.44936,16.7288ZM963.00245,427.802c-1.32488.957-2.37393,1.71475-3.64085,2.62989.42047.64471.823,1.262,1.21981,1.87052C963.52436,430.54084,963.52436,430.54084,963.00245,427.802ZM135.91074,207.94909c-1.2581,1.747-.41354,3.33163.32545,5.516.51964-1.63256.91895-2.70344,1.19534-3.80518C137.73029,208.469,137.10718,207.95819,135.91074,207.94909ZM447.784,36.43292l-3.218,2.04974c.59323,1.8147,1.6967,1.59633,3.01129,1.286Zm-341.962,41.815c-1.36012.33321-1.9023.95538-1.62935,1.88417a1.81067,1.81067,0,0,0,2.36216,1.35461Zm211.55-51.58967-.5222-.24721a6.2138,6.2138,0,0,0-1.33132,1.58655c-.17066.44406.18616,1.09093.30782,1.6474.50438-.24542,1.30541-.38011,1.44753-.76076A6.93835,6.93835,0,0,0,317.372,26.65825Z"/>
        <g id="title">
          <path d="M1164.243,262.81859c.60844,1.30015,1.131,2.45546,1.68921,3.59325.27956.57.48957,1.31466.96355,1.62406a37.36632,37.36632,0,0,0,5.721,3.31207,7.94169,7.94169,0,0,1,3.18491,1.994c4.17811,4.75181,5.27249,9.09571,3.70759,15.32468a3.00492,3.00492,0,0,1-.435,1.2828c-2.30533,2.4781-4.52151,5.06461-7.03454,7.31726a13.463,13.463,0,0,1-10.65194,3.65628c-2.37189-.22062-4.74539-.03327-6.90354-1.27834a18.379,18.379,0,0,1-1.65778-.94316c-3.92218-2.848-8.10166-4.35134-12.972-2.70632a34.16223,34.16223,0,0,1-3.45.77348c-.19249.60721-.4313,1.36013-.64574,2.03627-.28324.12254-.48178.2926-.608.24987a4.46041,4.46041,0,0,0-3.68512.34536c-6.70182,3.39879-13.89239,4.15683-21.28,3.703-1.10577-.06795-2.21467-.24531-3.31568-.20328a20.734,20.734,0,0,1-10.56019-2.7672c-2.882-1.56588-6.28365-2.702-8.43091-5.53228-.20854-.27479-.60706-.64514-.862-.60642-1.75676.26646-2.41194-.87541-3.13047-2.14234a6.87093,6.87093,0,0,0-1.72084-1.77313c-.98552-.8-1.80312-.40031-2.13312.86669a6.1379,6.1379,0,0,1-.96859,2.44381c-1.11873,1.29814-2.56294,2.32509-3.00679,4.11733a.74831.74831,0,0,1-.35313.41282c-3.54773,1.89285-6.75995,4.48724-10.89916,5.14237-2.69666.42674-3.26413.36271-6.782-1.18181-2.74292,2.00488-5.72653,1.9779-8.79524.5556a2.59536,2.59536,0,0,0-1.04833-.29017c-3.12417.014-6.24815.08043-9.37225.08155a3.35782,3.35782,0,0,1-1.8114-.36116c-2.21243-1.52815-4.2773.15761-6.40644.18968a.54817.54817,0,0,0-.3871.34669c-.50773,2.47114-2.17681,1.63452-3.67962,1.32044-1.71649-.35878-3.44569-.65946-5.156-1.04475-1.35061-.30421-2.673-.80893-3.90411.357a1.57908,1.57908,0,0,1-1.05518.24811c-3.85977-.1744-7.8013.00642-11.45266-1.44487a12.54681,12.54681,0,0,1-3.615-2.84313c-2.15467-2.06081-2.41818-5.0855-3.591-7.64093-1.19489-2.60373.85521-6.82053,3.50745-8.10864,1.71265-.83183,3.44554-1.41123,4.665-3.20965.76234-1.12419,2.58094-1.53208,4.3373-2.48466.13729-1.92013,2.40859-2.84005,3.75858-4.5004a8.37834,8.37834,0,0,0,1.86346-2.97208,18.91227,18.91227,0,0,0,.239-4.59881,62.12441,62.12441,0,0,0-.64409-9.035c-.52187-3.35264-1.22-6.89806-.372-10.434a24.39885,24.39885,0,0,0,.13251-4.9269c-1.15714.06738-1.95287.04065-2.72107.1733-1.71049.29526-3.428.59412-5.09864,1.052a4.33628,4.33628,0,0,0-1.68223,1.21477,37.12593,37.12593,0,0,0-3.15952,3.39873,4.54593,4.54593,0,0,0-1.23,2.60487,2.62329,2.62329,0,0,1-1.44656,2.71389c-1.33463.63389-1.3381,1.5646-1.30013,2.712.03972,1.19974-.01805,2.40237-.01384,3.60367a4.732,4.732,0,0,1-1.18906,3.27864,3.5858,3.5858,0,0,0-.98526,2.66621c.71385,2.41-.35538,4.37348-1.46313,6.13115a5.10561,5.10561,0,0,0-.95914,3.55857,4.15992,4.15992,0,0,1-.87776,2.70288c-1.76572,3.11125-3.76744,6.043-3.03953,10.18955.676,3.85066.22482,7.91159.14272,11.87731-.03709,1.78912-.986,2.15736-2.60389,1.18212-.55156-.33245-1.06612-.72617-1.69545-1.1592-1.86684.83177-3.397,2.57438-5.69828,2.41167-.44934-.03176-1.18411.222-1.31509.02691-1.16581-1.7359-2.83945-.7472-4.28161-.88059-3.12565-.28907-6.25967-.49-9.38311-.79861a2.70136,2.70136,0,0,1-1.72731-.70976c-1.86511-2.359-3.60693-4.815-5.41573-7.2192a12.44945,12.44945,0,0,1-1.84773-2.31529,25.51253,25.51253,0,0,1-.85-3.75074,25.9706,25.9706,0,0,0-.78059-2.53948c-.21042-.59577-.734-1.17325-.70958-1.74132a3.8811,3.8811,0,0,0-1.53571-3.07238,5.11746,5.11746,0,0,1-1.24556-2.31737,41.867,41.867,0,0,0-5.08674-12.16915c-.62873-1.01189-1.02662-2.16436-1.58368-3.22437-.6318-1.20219-1.37209-2.34923-1.96664-3.56833a5.77213,5.77213,0,0,1-.43323-1.83944c-.55918-4.76748-3.33739-7.61732-7.76859-9.05146a1.93541,1.93541,0,0,0-.80944-.15268c-4.05749.57092-8.33588-.21784-12.32887,2.06462-.02111,1.32828-.0857,2.77725-.059,4.22455.06981,3.77727.22028,7.55344.25535,11.33082.01635,1.754-.31864,3.55257,1.4099,4.7857a.64955.64955,0,0,1,.2619.47045c-.20928,2.611,1.79952,3.96043,3.10056,5.77724a18.16317,18.16317,0,0,0,6.248,5.74011c1.87262.99547,3.76006,1.99592,4.79979,4.034a3.19977,3.19977,0,0,0,1.20786,1.06244c2.32413,1.43644,2.9652,3.526,2.77955,6.16247-.38692,5.49336-5.64547,10.27722-10.87959,10.26636-1.66316-.00347-3.3266-.01438-4.98926-.04923-.45816-.00958-1.06468.04877-1.34761-.20685-2.40606-2.17431-5.36309-1.72217-8.11266-1.51083-5.1133.393-10.21505.3069-15.32511.24035a6.45679,6.45679,0,0,0-3.59919.9466,13.69539,13.69539,0,0,1-5.23548,1.23809c-2.13328.25405-4.28624.98888-6.3352-.74453a12.78342,12.78342,0,0,1-4.90018-8.66978,12.10587,12.10587,0,0,1,2.6161-9.29909,10.42844,10.42844,0,0,1,1.91011-1.52177c1.14837-.86212,2.70728-1.05716,3.57275-2.45753.29622-.47934,1.30354-.58683,2.013-.73213,4.17876-.85582,6.49185-3.42992,7.53683-7.52819a76.70105,76.70105,0,0,0,1.94171-22.262,10.23942,10.23942,0,0,1-.04356-1.38454c.68438-7.10717.2765-14.20358-.17659-21.301-.29194-4.57324.72532-9.00688,1.52045-13.45676a85.6045,85.6045,0,0,0,1.67548-18.92633c-.15631-3.49029.08376-7.04571-.51643-10.45533-.59379-3.3734-.63128-7.22812-4.14485-9.41184a.48178.48178,0,0,1-.18833-.20041c-1.3293-3.188-4.49775-3.59642-7.13783-4.90173a10.13131,10.13131,0,0,1-3.88313-3.333,6.34319,6.34319,0,0,1,4.41349-9.68949c5.17089-.94926,10.35632-1.82024,15.53965-2.70018,2.39383-.40638,4.74719-1.29959,7.24129-.66871a.70556.70556,0,0,0,.53357-.05255c2.04818-1.62795,4.5957-1.16651,6.67307-.8298,4.7941.77709,9.8065.5633,14.33042,2.93448a20.84926,20.84926,0,0,1,6.172,5.02236,46.74861,46.74861,0,0,1,5.71583,8.79005,13.10876,13.10876,0,0,0,4.20664,5.126c.502,1.93192.97862,3.76612,1.42214,5.47308a27.9119,27.9119,0,0,1,2.80037,1.99636,2.07158,2.07158,0,0,1,.37313,2.97012c-.87613,1.29186-.15994,2.22066.82053,3.08217a11.883,11.883,0,0,1,2.08361-2.37066,2.92818,2.92818,0,0,1,2.14826.03506c1.78334.56246.95693,2.11726,1.08979,3.50291,1.87611.46927,2.79863,1.76477,2.49937,3.97394,2.39266-.04693,3.9607.94824,4.29462,3.083a45.05176,45.05176,0,0,1,5.354-.88391c1.91319-.09223,3.74972.23438,5.04826,2.04633.9057,1.26357,2.17789,2.258,3.19666,3.4493a27.54356,27.54356,0,0,1,1.7729,2.64787c.71127-.60732,1.44259-1.2317,2.28285-1.94911,2.11942.55386,4.3222,1.12951,6.71637,1.75515a16.42408,16.42408,0,0,1,2.84295-8.4293c1.15009-1.77553,1.25146-4.21375,1.91749-6.32555a7.26814,7.26814,0,0,1,2.013-3.7758c.7842-.68846.4955-2.63954.60563-4.03032a5.35815,5.35815,0,0,0-.4044-1.501c2.30149-.17788,2.972-1.69837,3.7293-3.48869,1.06377-2.51449,2.67058-4.79606,3.98937-7.20778a10.79622,10.79622,0,0,0,.86581-2.29621c.71132-2.56663,1.16564-5.25257,3.79043-6.7609a2.57768,2.57768,0,0,0,.87161-1.06259c.85352-1.6673,1.95412-2.85983,4.06036-2.631a1.64856,1.64856,0,0,0,1.17417-.56377c1.66863-1.8884,3.92184-2.22387,6.22923-2.54684,1.251-.17512,2.46366-.61134,3.703-.88817a6.449,6.449,0,0,1,2.40132-.37486,22.17561,22.17561,0,0,0,11.16868-1.05461,12.0946,12.0946,0,0,1,7.87741-.00658c1.98143.67271,3.9665,1.05626,5.42489-.38182,2.62759.80045,4.87494,1.80573,7.21606,2.12621,3.92193.53688,7.82393,7.52014,6.78514,11.08412-.54224,1.86035-1.06111,3.7365-1.76795,5.53582a6.77841,6.77841,0,0,1-1.63856,2.15271c-1.90569,1.88283-3.85571,3.72192-5.823,5.54073a2.59134,2.59134,0,0,0-1.11209,2.63236c.30348,1.32282-.48975,1.99567-1.51731,2.63159-1.48508.919-2.87838,1.98551-4.32011,2.97567-1.37032.94121-1.69425,2.29913-2.21,3.853-1.69348,5.10226.0429,10.04045.11524,15.0393a43.50649,43.50649,0,0,0,.525,6.0695c.44174,2.82522.154,5.82834,2.03724,8.34476.376.50255.24936,1.41756.26761,2.14453a9.10188,9.10188,0,0,0,1.5177,5.22075,5.99225,5.99225,0,0,1,.8426,2.82252c.51816,5.98112.94,11.97052,1.43873,17.95342a6.64129,6.64129,0,0,0,.62275,2.6502,8.92364,8.92364,0,0,1,.56264,6.71124c-.42275,1.67879-.45093,2.80464.867,3.7655-.58407,3.14192-.90354,6.06437,1.16543,8.78a11.20727,11.20727,0,0,1,1.87413,3.995,11.54866,11.54866,0,0,0,4.74889,6.93132c2.44865,1.64653,5.02972,2.95834,6.43526,5.74654.15821.31364,1.00611.50964,1.45278.4068,1.66925-.38436,3.30467-.9158,5.05052-1.42032-.0935-2.38357,1.37428-4.18739.85288-6.43109-.14851-.639.48769-1.576.9724-2.21922a6.79376,6.79376,0,0,0,1.57039-3.10416c.1049-.6482,1.18932-1.1379,2.1418-1.97124-.14218-.496-.38363-1.33813-.70328-2.45318,1.952-1.6677,4.06038-3.43839,6.12955-5.25382a16.85758,16.85758,0,0,0,1.90173-1.99593c2.0488-2.50261,4.05442-5.04066,6.09781-7.54787.74734-.91689,1.25119-1.83152.70656-2.60872-1.90472-.22388-3.514-.36116-5.10387-.61783a25.60594,25.60594,0,0,0-3.22653-.74612c-2.74323-.06881-4.60562-1.73814-6.53268-3.31a3.58471,3.58471,0,0,1-1.143-1.51351c-1.14332-3.44965-1.97309-6.94735-.7746-10.57217a27.48153,27.48153,0,0,1,5.078-9.008c2.67289-3.25337,5.98062-5.65321,8.9794-8.41,3.48134-3.2002,7.298-6.18439,11.89622-7.82654a1.04062,1.04062,0,0,0,.48651-.25372c1.73714-2.37293,4.42768-2.39345,6.94581-2.82291,3.999-.682,8.11727-.96181,11.967-2.13016a34.20231,34.20231,0,0,1,9.50715-1.16072,26.82225,26.82225,0,0,1,5.98645.85552,22.70349,22.70349,0,0,1,5.54614,1.61542c3.95236,2.00556,7.99708,3.84994,10.99911,7.43213,1.03156,1.2309,1.14038,2.6757,1.99548,3.79508a15.60279,15.60279,0,0,1,2.49037,6.39438,32.70565,32.70565,0,0,1,.41976,3.54366c.029.26454-.05552.7068.06712.77081,1.695.885,1.75151,2.41695,1.72328,4.03231a1.75034,1.75034,0,0,0,.494.94008c1.24624,1.53636,2.51567,3.054,3.92292,4.7543,2.99616-1.0444,6.0025-2.46515,7.8717-5.85337l1.90735.32231a16.24289,16.24289,0,0,1,8.54369-7.15533,2.0968,2.0968,0,0,0,1.09815-.76137c2.09-3.5505,5.6439-5.51031,8.6562-8.05654.21058-.1779.56377-.31235.62068-.52767.62817-2.37982,3.13057-3.23881,4.21552-5.24061a2.20043,2.20043,0,0,1,.687-.85557c1.818-1.0848,3.5762-2.688,5.52954-2.99184,1.49361-.23235,2.95489-.61234,4.4033-.96574,1.49857-.36562,2.90783-1.08516,4.37806-1.58536a4.73629,4.73629,0,0,1,1.57054-.18111c4.50727.06889,9.01432.15994,13.52134.24439,2.61123-1.57136,5.27576.66333,7.92358-.12476,1.80059-.53592,3.66029-.87126,5.48857-1.31727a.65757.65757,0,0,0,.40283-.36093c.79362-2.33418,2.996-4.03465,3.0406-6.69785.04213-2.51519.48293-4.88294-.66864-7.51885a36.34776,36.34776,0,0,1-2.56914-8.09473c-.615-3.54725-2.91956-5.8232-4.74927-8.49264a6.99232,6.99232,0,0,1-1.534-4.88767c.17449-1.5207-.10968-3.36068,2.33986-3.23694a.32535.32535,0,0,0,.2413-.12447c1.97813-2.93941,5.23252-2.68474,8.15657-3.30771,3.70191-.78866,7.36039-1.79292,11.07718-2.49455,3.67277-.6933,7.38036-1.27656,11.09927-1.62631a5.59964,5.59964,0,0,1,6.453,4.43606c1.17974,4.35857,2.27568,8.74053,3.34159,13.12849a4.63528,4.63528,0,0,1-.05694,2.19464c-1.00427,3.77819-.39109,7.5165.11768,11.27126a5.63707,5.63707,0,0,1-.07425,2.45721c-1.11435,3.3156-1.0102,6.73455-1.072,10.14835-.05519,3.03945.09966,6.08822-1.1286,9.01259a4.84544,4.84544,0,0,0,.03268,2.72525c.97614,4.33553.85814,8.77115,1.30493,13.15337.33687,3.30538.6702,6.61126.97194,9.91993.06657.72893-.03367,1.47159-.00647,2.20606.02009.54265-.08095,1.28484.22233,1.58933,1.57424,1.58075,1.28094,3.5553,1.38243,5.4701a6.62276,6.62276,0,0,0,.36648,2.166c1.82032,4.3686,1.57495,8.79927.68947,13.31809a15.04139,15.04139,0,0,0-.14182,4.91174,36.91038,36.91038,0,0,1,.5139,9.91982c-.44746,3.51976,1.41871,6.39168,3.19871,9.096a18.13044,18.13044,0,0,0,4.62992,4.326c1.33918.97216,1.50955,2.06367,1.52554,3.54636.0317,2.94919-2.3687,4.31914-3.81966,6.28218a4.99491,4.99491,0,0,1-3.94554,2.09168c-1.66584.1105-3.27708,1.08038-4.90679,1.68691a35.74891,35.74891,0,0,0-4.11463,1.61c-1.195.62322-2.14259,1.8418-3.37787,2.23262-1.2327.39-2.70843-.07686-4.04035.10531-2.912.39834-5.79209,1.02806-8.70414,1.424-.61811.084-1.3164-.42831-1.97874-.6627a9.08788,9.08788,0,0,0-2.80976-.93607,15.37163,15.37163,0,0,1-7.98411-2.53569,5.01294,5.01294,0,0,0-5.30015.01074c-2.13763,1.5978-4.61307,1.03234-6.83651,1.81731a30.39127,30.39127,0,0,1-4.58037.83245c-1.88566.3495-3.78446.65657-5.63922,1.13224a24.54917,24.54917,0,0,0-3.27849,1.38228,7.03965,7.03965,0,0,0-5.243-.97537,4.911,4.911,0,0,1-1.87437-.2848c-2.5254-.7279-4.54487-2.74857-7.31819-2.87552a1.07624,1.07624,0,0,1-.706-.413c-1.43791-1.96146-3.67961-2.50827-5.74033-3.44981a15.93294,15.93294,0,0,1-6.34472-5.2262,2.8736,2.8736,0,0,0-.70408-.82965c-3.98189-2.39806-6.666-6.10409-9.38928-9.678-1.50261-1.97178-2.29339-4.48844-3.38342-6.76986-.19556-.40953-.15181-1.015-.44455-1.28406-3.30339-3.03542-4.30309-7.32886-6.1709-11.14606a4.7899,4.7899,0,0,0-.7932-1.43541,3.38856,3.38856,0,0,1-.98676-3.29184,7.53488,7.53488,0,0,0-1.17732-5.2783c-.41914-.70051-.58606-1.549-.98136-2.26752-.32435-.58949-.71128-1.35683-1.25667-1.57037a2.70476,2.70476,0,0,1-1.86447-2.74953c-.02145-.43976-.6054-.85223-1.06345-1.44817-.90281,2.48944-1.57259,4.624-2.476,6.65464a3.16551,3.16551,0,0,1-1.83175,1.389c-1.596.50726-2.0852,1.52047-2.15871,3.10426C1164.81758,257.67508,1164.48637,260.23675,1164.243,262.81859Zm56.91057-28.91527a17.32559,17.32559,0,0,1-1.02878,3.82881,4.05024,4.05024,0,0,0-.67637,3.35079,4.55881,4.55881,0,0,1-.15906,1.62347c-.27246,2.6494-.66336,5.29422-.77246,7.95051-.09376,2.28723-.0838,4.61,1.18781,6.71477a2.84463,2.84463,0,0,1,.21975,1.87119,7.60371,7.60371,0,0,0,1.1014,5.29992c1.22314,2.24044,2.388,4.52076,3.75554,6.671a11.1475,11.1475,0,0,0,2.66657,2.77161,53.7316,53.7316,0,0,0,5.28486,3.54328c3.864,2.2718,8.01311,2.04,12.03351.70954,1.76628-.58449,3.3251-1.76722,5.0229-1.35668.59585-1.08755,1.07387-1.91053,1.50488-2.75757.77743-1.52859,2.06636-3.02861,2.19275-4.61614.48948-6.14788.69242-12.32359.82754-18.49276.08264-3.77866-.11411-7.56571-.25463-11.34643a28.77815,28.77815,0,0,0-4.13842-14.45453,7.44563,7.44563,0,0,0-4.38378-3.733c-1.477-.36077-3.15394-.99326-3.67793-2.93763-.31705-1.1767-1.17353-1.42478-2.39475-.91287a9.58327,9.58327,0,0,1-2.673.32585,7.18183,7.18183,0,0,0-2.37893.27419c-2.37779,1.19055-4.69886,2.5023-6.98191,3.8676a2.32842,2.32842,0,0,0-1.05955,1.52872c-.164,2.38388-1.90645,3.76369-3.19961,5.394.19451,1.26846.38276,2.49629.55961,3.64952C1222.60552,233.20894,1221.78314,233.60223,1221.15359,233.90332Zm-108.06664,14.5858c1.61474-2.55444,2.71539-2.92755,5.53371-2.38933a4.70435,4.70435,0,0,0,2.30671-.46342c3.21772-1.1969,6.45-2.19283,9.96024-1.6677a3.7073,3.7073,0,0,0,3.78092-2.73916,12.28321,12.28321,0,0,0,.12074-2.97575,96.23183,96.23183,0,0,1-.58755-11.84775c.08489-1.70728-.91818-3.64891-1.90889-5.17015-.74071-1.1374-2.254-1.77164-3.21683-2.47839-2.11756.974-3.96391,2.15708-5.9786,2.64425a3.85775,3.85775,0,0,0-2.90132,2.5342c-1.12206,2.47968-1.38938,5.40195-3.74,7.27229a2.02177,2.02177,0,0,0-.45446,1.26626,13.4382,13.4382,0,0,1-3.305,6.88969,6.43672,6.43672,0,0,0-1.59432,2.82473,9.9382,9.9382,0,0,1-1.22279,3.87963,6.85378,6.85378,0,0,0-.346,2.05911Zm2.30451,23.66041c.13989,1.65078.32945,3.29945.40089,4.95318a1.84731,1.84731,0,0,0,1.38811,1.83075c3.36931,1.1149,6.67313,2.80635,10.35038.94862a13.16693,13.16693,0,0,1,2.926-.7804c4.60618-1.08478,4.60707-1.08122,6.1752-5.70554a7.01747,7.01747,0,0,0-4.029-9.19311c-1.43167-.63186-2.84014-1.32987-4.30971-1.85678a3.62384,3.62384,0,0,0-2.3472-.23983,54.353,54.353,0,0,0-7.38163,3.66653A6.70611,6.70611,0,0,0,1115.39146,272.14953Z"/>
          <path d="M296.88325,286.29609a2.11351,2.11351,0,0,0-1.904,1.70624c-.23428,1.08957-1.23753,1.30994-2.1637,1.40154a4.81246,4.81246,0,0,0-3.3405,2.10932,11.43216,11.43216,0,0,1-4.27562,3.37419,6.26462,6.26462,0,0,0-3.80942,3.66638c-.41374.97225-.96378,2.37671-1.74223,2.60728-1.95535.579-3.71495,2.32092-6.03,1.35472a2.89191,2.89191,0,0,0-3.09206.4877,5.03866,5.03866,0,0,1-2.29229.54589c-2.26582.29132-4.53269.60449-6.80921.77537-3.74325.281-7.30427,1.97474-11.181,1.32442a10.90652,10.90652,0,0,0-3.28634.28736,90.10758,90.10758,0,0,1-9.81005,1.43186,22.557,22.557,0,0,1-6.95177-1.244,11.17917,11.17917,0,0,0-4.58577-.69138,3.07968,3.07968,0,0,1-1.09762-.0643,8.95745,8.95745,0,0,0-8.7233,2.38857,7.68718,7.68718,0,0,1-6.49116,2.21343c-3.39519-.32907-6.82668-.28286-10.24241-.402-.46136-.0161-1.10136.13107-1.35415-.11287-1.83633-1.77215-4.02141-1.03011-6.127-1.01057-2.11136.01962-4.2332.02143-6.33242-.16838a33.503,33.503,0,0,1-4.00137-.9201c-2.962-.64537-5.91649-1.343-8.90306-1.84771a3.60012,3.60012,0,0,1-2.36906-1.08516,44.4372,44.4372,0,0,0-3.697-3.27359,2.57471,2.57471,0,0,1-.73134-2.99816c.47955-1.58879.77035-3.23343,1.20262-4.83783a20.37163,20.37163,0,0,1,4.458-8.12178,5.56448,5.56448,0,0,0,.86562-1.62231,28.19265,28.19265,0,0,0,1.042-3.02877,4.97553,4.97553,0,0,0,.12676-1.84372,9.789,9.789,0,0,1,.73281-5.11258,12.75886,12.75886,0,0,0,.53882-4.3298,3.729,3.729,0,0,1,1.20721-2.94316c.747-.66119,1.26956-1.56926,1.96618-2.29645a3.30335,3.30335,0,0,1,1.47354-1.04358c1.5885-.33191,1.91-1.3694,1.60424-2.68008-.30373-1.30216-.81484-2.556-1.45533-4.49952-.79645,1.29978-1.26411,2.00635-1.6673,2.748-.16886.31061-.091.84466-.31981,1.01344a5.21684,5.21684,0,0,1-1.40709.52737c-.10545-.47527-.44442-1.24967-.27941-1.37847,1.321-1.03116.83958-2.14316.53278-3.45417-.45264-1.93421-1.02137-3.97359.63722-5.78366.32193-.35133.23469-1.21574.12257-1.80267-.4778-2.5011-.72748-4.89016,1.07332-7.09486a2.74214,2.74214,0,0,0-.04637-3.58525,9.46168,9.46168,0,0,1-.80111-2.52443l2.89442.702c.765-.81709,1.54677-1.652,2.30846-2.46553a2.038,2.038,0,0,0-.29132-.555c-2.39221-2.11165-2.45227-2.14828-.761-4.66809,1.10068-1.63985,1.58367-3.11734-.11219-4.63983-.94671-.84993-.69513-1.87307-.17125-2.78523.58858-1.02483,1.33035-1.96169,2.00282-2.933-1.19377-1.27175-2.67584-2.36378-3.47651-3.82831-.97525-1.78392.124-3.33921,1.91388-4.63422-.66906-.9648-1.2604-1.84609-1.883-2.70468a11.4446,11.4446,0,0,1-1.1832-1.51636c-.5237-1.07668-.6261-2.12376.65889-2.858a16.543,16.543,0,0,0,2.045-1.42449c1.023-.81127.96816-1.93482.71338-3.04466-.23186-1.01-.86311-1.38484-1.97186-1.51048a30.17377,30.17377,0,0,1-4.45585-1.15626c-.29889-2.16719,1.81974-1.73254,2.13293-2.9131a31.15162,31.15162,0,0,1,2.54083-4.70954c1.45351-1.87874,1.50581-2.27248-.65626-3.3872-.32294-.1665-.626-.37144-.87882-.52292-.71693-1.96355-.13607-3.47751,1.73729-4.83786-2.32742-1.8048-3.74719-4.11-6.45452-5.282-2.99745-1.29759-4.2732-4.16952-4.80524-7.29733a11.09329,11.09329,0,0,1,.01379-2.21486c.136-3.87148,1.94209-5.58858,5.86848-5.82464,3.86088-.23215,7.71107-.63673,11.56975-.91273,2.17742-.15572,4.36778-.13986,6.54284-.31736,3.12992-.25539,6.33593-.34022,9.207-1.75871a25.24483,25.24483,0,0,0,3.83031-2.92455c2.89941,1.707,6.53473,1.08325,10.00524,1.35041,2.04271.15725,4.13993-.60254,6.22191-.6719a2.66313,2.66313,0,0,0,2.58892-1.65867,6.9943,6.9943,0,0,1,2.549-2.38406,60.48935,60.48935,0,0,0,5.27667-4.88173,5.8423,5.8423,0,0,1,2.86487,3.62763c.99446,3.60982,3.34938,4.97841,6.8973,5.02247,1.36479.01694,2.63275.23356,3.14565-1.79262,3.33324,3.40771,7.42586,3.34885,11.2478,3.06193a9.17157,9.17157,0,0,1,5.40107.8109,3.69392,3.69392,0,0,0,2.38907.21343,11.62186,11.62186,0,0,1,8.828,1.13471c1.217.69829,3.075.10494,3.76358,1.86954.01713.0439.20378.07986.25856.04235,1.75617-1.202,2.586.43354,4.0583,1.72325-.23107-1.32141-1.54532-2.40831-.02392-2.89991,1.68986-.546,1.69468.85446,1.96035,1.91743.41955,1.67866,1.28292,2.79675,3.238,2.78721,1.92915-.00939,2.51882,1.73331,3.21766,3.01635a3.96945,3.96945,0,0,0,1.64658,2.03354,1.98311,1.98311,0,0,1,.83575.70914c1.64143,2.84355,4.30331,4.96785,5.49553,8.1615a15.13078,15.13078,0,0,0,3.094,5.48467,6.22685,6.22685,0,0,1,1.19961,4.13256,48.11523,48.11523,0,0,1-1.00138,6.45858,8.12935,8.12935,0,0,0-.302,2.38475c.47276,3.1678.491,6.25408-1.00922,9.19367a3.73338,3.73338,0,0,0-.28173.78165c-.48151,1.91013-.07717,2.5196,1.952,2.68791a26.80723,26.80723,0,0,0,3.34-.20819c-2.0077,1.42438-1.50634,2.8169-1.22355,4.23884.31451,1.58138.46966,3.19443.73976,5.11858-2.61046-.56392-2.2818-3.13378-3.96259-3.98359-.64678.89755-1.33447,1.85183-2.22409,3.08634,1.1844,1.44622,2.33374,2.97187,3.61318,4.37924,1.42067,1.56274,1.42744,2.2172-.37506,3.47044a4.40363,4.40363,0,0,0-2.04412,2.47c-.17983.625-1.13548,1.02689-1.7021,1.49757.64555,1.7069.8688,3.78817,2.01361,4.99576,2.02325,2.13423,3.70637,4.23374,3.93087,7.25945.01578.21295.32077.47953.55349.58978,2.62731,1.24435,2.53834,3.93977,3.45674,6.15316,1.187,2.86069.2118,5.81815.83165,8.66753.17576.808.21673,1.64976.442,2.44116.23324.81914.49528,1.56035-.14631,2.33805a1.46,1.46,0,0,0-.20008,1.05553c.808,4.71435-1.75423,8.59193-3.28068,12.67959-.70666,1.89228-2.34328,3.41782-3.39957,5.20351C300.231,280.13427,298.68912,283.04495,296.88325,286.29609Zm-44.56473-47.49483-.738-.13216c-.69193.57937-1.64182,1.02579-2.02294,1.76534-.83178,1.61411-2.2129,1.737-3.7051,1.89958-1.18352.12894-2.35832.36368-3.526.60469-1.06585.22-2.17915.85209-3.1566.67353-.93523-.17084-1.72251-1.15159-2.68646-1.85818a5.10345,5.10345,0,0,0-.80444,1.04263c-.70366,1.66141-1.96149,2.20783-3.70912,2.31317-2.24906.13554-4.48062.56153-6.57685.84324-.42283,1.48539-.83248,2.606-1.05216,3.76273a15.98223,15.98223,0,0,0-.19835,7.24738c.73709,2.9411,1.52845,6.07444.9436,9.24944a13.19312,13.19312,0,0,0,.17,6.684,33.26435,33.26435,0,0,0,2.62162,5.55426,5.69407,5.69407,0,0,0,3.77308,2.83568c2.7892.92728,5.60825,1.76473,8.41482,2.6397a7.1794,7.1794,0,0,1,3.58738-.94732c3.68748.30866,6.29079-1.70917,8.8178-3.86385,1.88876-1.61049,3.63985-3.38538,5.40963-5.13028a2.97774,2.97774,0,0,0,.96724-1.51935,14.79227,14.79227,0,0,1,3.32213-7.28621,14.70675,14.70675,0,0,1,.27309-8.92826c.68854-2.27129.65253-4.26078-1.40037-5.86072a8.05011,8.05011,0,0,1-1.18014-1.45816,11.1418,11.1418,0,0,0,.35248-1.14965c.38551-2.06161.02472-2.49588-1.8482-3.39495-1.321-.63414-2.29938-.01068-3.41336.38109-1.756.61757-2.65528.13883-2.88741-1.68815a12.59008,12.59008,0,0,1,.38693-2.35782A12.19437,12.19437,0,0,0,252.31852,238.80126Zm3.27079-42.96591c2.73839-1.27988,3.285-2.77026,2.29818-5.36792-.50425-1.32736-.81086-2.7298-1.2894-4.38387-.26526-.07692-1.128-.05726-1.42081-.456-1.83577-2.49994-4.7541-2.13755-7.23969-2.89824a2.33867,2.33867,0,0,0-.78425.03506l-1.39117,1.82043a5.52762,5.52762,0,0,1-1.2594-.69807c-1.35931-1.36164-2.91087-1.23687-4.59584-.80815a20.8847,20.8847,0,0,1-4.87226.91977c-3.26447.02368-5.23548,1.3941-6.26575,4.527-.53817,1.63643-1.63676,3.07488-1.63038,4.91858.00732,2.11376-.16673,4.23228-.07415,6.3405.09246,2.1052.399,4.2024.65493,6.29786a2.80556,2.80556,0,0,0,.465,1.271c1.80318,2.47019,6.21858,3.59677,9.3251,2.31605,1.93416,1.82165,4.26069.591,6.4812.54228.46951-.0103.96731-.4745,1.38478-.81265,1.76671-1.431,3.13865-3.42877,5.6366-3.799a1.76365,1.76365,0,0,0,.90376-.61611c1.94486-2.1903,4.06406-4.30243,3.658-7.62952A12.127,12.127,0,0,1,255.58931,195.83535Zm-62.63875,5.07653c.59257.56084,1.219,1.15374,1.96879,1.86341.93759-1.38777,1.736-2.56494,2.52261-3.74987.03238-.04879-.0453-.17066-.0717-.25847C195.06084,198.39765,194.29631,198.74417,192.95056,200.91188Zm1.98924,4.85461-.55854-.141q-.36444,1.11783-.72886,2.23565a1.3045,1.3045,0,0,0,1.15931-.80823A5.30119,5.30119,0,0,0,194.9398,205.76649Z"/>
          <path d="M432.16588,226.73641l.49515,3.1656-3.46833,1.8185c1.49306,1.5456,1.1697,2.91437.28592,4.57007-.64165,1.202-.16828,2.96307-1.96449,3.56635.7793,1.78543,1.009,3.27182-.18889,4.67149a2.06231,2.06231,0,0,0-.4134,1.288c.06392,2.73467-1.48356,5.35666-.53248,8.16635.1542.45551.04295,1.39075-.24282,1.54176-1.79833.95026-1.34537,2.6919-1.59556,4.1586-.26363,1.5453-.433,3.1117-.54543,4.67593a12.8313,12.8313,0,0,0,.11918,2.73431c.36915,2.55247.84444,5.08981,1.19977,7.644a5.489,5.489,0,0,0,1.94146,3.8323,6.89323,6.89323,0,0,1,1.50553,1.92027c.46782.79729.71069,1.78428,1.9741,1.47477,1.69943,2.06133,4.64756,3.05844,5.177,6.13486a3.83919,3.83919,0,0,0,.68049,1.21934,15.93849,15.93849,0,0,0,3.89593-.591c2.13243-.91684,4.59551-.90555,6.45159-2.68581,1.58577-1.521,3.57981-2.608,5.30717-3.99442a3.26607,3.26607,0,0,0,1.2675-1.90544c.36124-4.40978.65736-8.82945.78781-13.25143a48.13465,48.13465,0,0,0-.5454-5.48192c-.14239-1.64208-.29319-3.29182-.2756-4.93641.01182-1.10456-.06792-2.07185-1.20115-2.52507-1.0328-.413-1.11119-1.33982-1.45348-2.18929-.74941-1.85989-1.64886-3.65907-2.40862-5.51514a3.1365,3.1365,0,0,1-.34786-2.00612c.5437-1.36138-.25211-2.04584-.79353-3.138-1.69916-3.42766-3.559-6.84532-4.221-10.69566a2.54579,2.54579,0,0,1,.12112-1.61413,3.25475,3.25475,0,0,0-.03132-3.3973c-.63378-1.31434-.11967-2.49038.35142-3.72086.50924-1.33023.85489-2.7231,1.39928-4.50577,2.48073-.7885,5.436-1.69815,8.36528-2.68513a4.23,4.23,0,0,0,1.49236-1.04442q1.65276-1.625,3.20614-3.35c.57258-.6348,1.05023-1.35521,1.79225-2.32732a3.689,3.689,0,0,0,3.50216-2.2709,12.56157,12.56157,0,0,1,2.71809-3.12283,13.34789,13.34789,0,0,1,2.9093-1.95558c.97813-.5003,2.1108-.69155,3.10982-1.15915,3.23464-1.514,6.32418-.7976,9.28983.66259,1.94977.96,3.75313,2.21742,5.5762,3.314a39.32445,39.32445,0,0,1,14.98616-2.09542,10.44845,10.44845,0,0,1,2.35668.741,6.13273,6.13273,0,0,0,2.07554.66514c2.60481-.1908,4.3492,1.33816,6.01443,2.9096a33.91411,33.91411,0,0,1,4.0467,4.54386,8.49318,8.49318,0,0,1,1.095,3.07873c1.40074,5.99108,2.57346,6.06595-2.56209,11.69021a5.53868,5.53868,0,0,0-.91085,1.384,3.46577,3.46577,0,0,1-3.45824,2.185,8.21139,8.21139,0,0,0-3.71074,1.60184,5.67669,5.67669,0,0,1-4.14468.94433c-2.55029-.3661-5.15047-.38115-7.72869-.55734a4.33646,4.33646,0,0,0-4.43349,2.21823c-.77949,1.38736-1.7861,2.31151-3.52034,2.05328-1.1922,2.53851-2.32924,4.95914-3.46507,7.38036a.76159.76159,0,0,0-.09429.25957c-.20146,3.53621-1.64632,6.9422-1.16647,10.54393a83.6497,83.6497,0,0,1,.42443,18.22819,15.36489,15.36489,0,0,0,4.06093,12.1947,18.16612,18.16612,0,0,0,7.19052,4.68862c3.13006,1.28591,6.1856,4.63087,5.60732,8.22889a4.10191,4.10191,0,0,1-.14726.81251c-1.21189,3.16567-6.69553,6.13116-10.07946,5.39725-1.16182-.252-2.21577-.6706-3.45873-.0776a3.2557,3.2557,0,0,1-2.14942-.24526c-4.235-1.521-8.68955-1.70476-13.08941-2.13654-3.92474-.38516-7.87545-.51323-11.817-.70979a2.76917,2.76917,0,0,0-1.2757.40909c-3.96826,2.02368-8.05972,1.92807-12.37306,1.261-3.484-.53882-6.31042-2.25532-9.33089-3.72375a5.23189,5.23189,0,0,0-2.58529-.42151c-2.29345.1786-4.57035.56-6.86159.78026a5.382,5.382,0,0,0-3.51068,1.354,5.09543,5.09543,0,0,1-2.43159,1.12659,32.64219,32.64219,0,0,0-7.09736,2.11772,44.27088,44.27088,0,0,1-10.772,3.48562,13.32629,13.32629,0,0,1-8.97242-1.51829c-3.68106-2.07179-7.77172-3.07026-12.03706-.61172-1.61451.93059-3.81327.85009-5.74714,1.22273a9.63071,9.63071,0,0,0-2.34195.44795,28.78938,28.78938,0,0,1-13.9196,2.78533c-3.344-.11262-6.48584-1.39678-9.826-1.08576-.39066.03638-.83529-.31763-1.22876-.53746a31.81919,31.81919,0,0,0-3.10728-1.76272c-3.41255-1.42654-5.93809-3.97628-8.76181-6.2336-2.407-1.92424-3.38827-4.38033-4.71284-6.78974a30.71569,30.71569,0,0,1-1.21709-3.32023c-.7876-1.94327-1.69352-3.84065-2.423-5.80443a7.57576,7.57576,0,0,1-.66848-3.21363c.477-4.67586-1.00721-9.16374-1.14454-13.75889-.10971-3.67178.07348-7.35817.26114-11.0312.15694-3.0711.53671-6.13024.76-9.19888a5.89088,5.89088,0,0,0-.66892-3.43258c-.88887-1.63662-.35973-3.50536.50307-5.04668,2.56051-4.57434,1.58074-8.641-1.49141-12.49844-.171-.21468-.45724-.3936-.51683-.63233-.67349-2.69973-2.79517-3.992-5.07924-5.25423.01087-.68447.02737-1.40983.033-2.1353.01876-2.41935.03941-4.79364,2.07488-6.62992,2.54037-2.29176,5.34674-4.06863,8.82609-4.147,1.6-.036,3.21305-.99453,4.86026-.04877.2501.14359.81558-.29782,1.24735-.42855,1.50257-.455,2.99878-.92959,4.57979-.25464a1.88351,1.88351,0,0,0,1.08487.04456c3.78373-.85956,6.88328,1.25107,10.22018,2.32629.08675.02794.16059.09854.24777.122a11.7585,11.7585,0,0,1,3.25474.94026c.969.61842,1.56341,1.79317,2.42885,2.61133a7.131,7.131,0,0,1,2.42712,5.03486c.113,1.61041.20963,3.71609,2.28832,4.669a1.94135,1.94135,0,0,1,.66972,1.62035c-.39431,3.54139-.478,7.15647-2.71034,10.25863a5.19368,5.19368,0,0,0-.59973,2.88541,40.18321,40.18321,0,0,0,.41122,4.40888,3.20308,3.20308,0,0,1-.82854,3.04444,2.25571,2.25571,0,0,0-.36995,1.97884c1.27054,3.49157.5709,6.93276-.07649,10.38133-.37462,1.99583-.863,3.97032-1.23765,5.96614-.2382,1.26877-.46841,2.56075.51673,3.69545.20509.23622.39434.82116.27285.95353-1.057,1.15169-.28561,2.29811-.01446,3.39956.4083,1.65836,1.08567,3.20627.98215,5.02494-.06354,1.11609.61617,2.29065,1.02866,3.41451,1.15095,3.136,2.97224,5.2273,6.76729,4.66957a23.10157,23.10157,0,0,1,4.42564.11713,7.29278,7.29278,0,0,0,4.7893-.92759,3.07175,3.07175,0,0,1,1.84679-.38394c1.742.13165,2.89222-1.18279,3.574-2.18,1.0592-1.54945,1.928-3.07338,3.67543-3.97917a2.32787,2.32787,0,0,0,.88941-1.61156,43.86128,43.86128,0,0,1,2.219-8.78045,18.28541,18.28541,0,0,0,.82354-7.62348c-.27933-3.11355.01487-6.27682.026-9.41867.00844-2.40077-.08-4.80232-.04736-7.20247.04615-3.39066-1.64913-5.73279-4.38365-7.45139-.90937-.57153-1.7611-1.20808-1.64562-2.35219.23395-2.31781-.87806-4.047-2.25484-5.74075-1.04067.28281-2.0945.75236-2.4681-.99542a3.5346,3.5346,0,0,0-3.03641-2.84341c-.20746-1.99859-.38625-3.82214-.58871-5.64305-.20757-1.86644-.03416-2.19333,1.71878-2.944.96971-.41521,2.28779-.42791,2.19144-2.01413-.00942-.155.14136-.44977.24494-.46275,2.5496-.31965,4.15569-2.933,7.0025-2.69864a37.14755,37.14755,0,0,0,8.02572-.01512c4.79943-.65791,9.5752-.33968,14.36262-.22462a19.8643,19.8643,0,0,1,8.73491,2.234,8.8218,8.8218,0,0,1,4.36014,4.11495c.83027,1.62747,2.52543,2.87477,3.99665,4.09864,1.79958,1.49706,2.07659,2.13367,1.5403,4.48653-.23271,1.02092-1.243,1.9399-.484,3.12848C428.68117,225.63243,430.09226,226.37062,432.16588,226.73641Z"/>
          <path d="M826.34159,290.42148c-.27424,2.18116-.39394,4.39589-.85855,6.5357-.718,3.30705-3.57483,5.19355-6.97013,5.60381-3.07107.37106-6.07031-.67109-9.02632-.24416-5.64407.81518-11.21092-.10148-16.8101-.22381-2.30721-.0504-4.59855-.26883-6.73038,1.03594a2.21149,2.21149,0,0,1-2.02606-.01976c-2.1126-1.72938-4.73645-1.35859-7.11607-1.8176-1.43777-.27725-2.84786-.30253-4.16178-1.12941-1.37776-.86711-2.90367-1.496-4.34771-2.26136a5.26163,5.26163,0,0,1-2.753-4.13963c2.13309-2.11347,4.17822-4.24418,6.35061-6.23612.7689-.705,2.12969-.859,2.72023-1.6418.90418-1.19862,1.973-.6827,3.234-.80386a14.348,14.348,0,0,0,1.73532-3.55452c.21942-1.12631-.3022-2.397-.556-3.97322,1.17064.392,1.84187.61683,2.66358.892.26548-.48343.69091-.91944.73545-1.39145.48333-5.113.67639-10.26615,1.43437-15.33572a29.09716,29.09716,0,0,0,.18344-8.7721,3.73589,3.73589,0,0,1,.01136-1.38009c1.1657-4.94548.13477-9.84272-.22642-14.76311-.13678-1.86332-.02868-3.70216-1.66677-5.0275-.28508-.23069-.49793-.66453-.80581-.735-2.1415-.48979-2.8058-2.42149-3.44151-4.00458a4.38645,4.38645,0,0,0-4.24531-2.89645c-2.484-.19788-4.9775-.29463-7.46885-.36959a4.46777,4.46777,0,0,0-1.883.34986c-1.23292.5447-2.69753.95486-3.55081,1.89089-2.01373,2.20906-3.70428,4.71019-5.56447,7.0624-2.468,3.12075-1.84674,6.77834-1.83949,10.32435.00578,2.76974.08306,5.53941.13637,8.30895a15.54628,15.54628,0,0,0,.60816,2.82257c.28138,1.38839.65636,2.78085.87894,4.17909a12.561,12.561,0,0,1-.24658,4.39221,9.08029,9.08029,0,0,0-.09089,4.90284,3.42454,3.42454,0,0,1,.10419,1.64245c-.657,3.58631.58852,6.95322,1.15684,10.3955.071.43018.2608,1.02986.58179,1.20036,3.19489,1.69744,3.31246,5.42241,5.25217,7.954.72014.94.75369,2.36143,1.74917,3.34852.444.44031.36279,1.5117.34233,2.29195a22.23307,22.23307,0,0,1-.40994,2.744l-1.15844-.13258a18.99026,18.99026,0,0,1-2.1577,2.05166c-4.85749,3.3446-10.25816,3.86826-15.86111,2.70081-1.905-.39689-3.37811.6917-5.08762.87795a5.10775,5.10775,0,0,0-1.312.56793,3.522,3.522,0,0,0-4.90033-.62968c-1.18444.68589-3.058.15732-4.61947.22539a17.13706,17.13706,0,0,1-2.96978.23151,19.38546,19.38546,0,0,1-4.69947-1.14131,2.60225,2.60225,0,0,0-2.56037-.03187c-2.52539,1.41079-4.953.25922-6.9956-.90956-1.93813-1.109-3.46034-2.99855-5.03795-4.66553-1.06459-1.125-.63717-2.59493-.48847-3.97116.16376-1.51455.24316-3.03818.40824-5.19846,2.64288-1.90113,5.79691-4.16991,9.22555-6.63622a12.36907,12.36907,0,0,1,2.01836-7.69635,2.93609,2.93609,0,0,0,.42385-1.56007c-.04257-3.13088-.15015-6.26084-.23247-9.39122a17.48121,17.48121,0,0,1-.01919-1.92929c.27991-3.29678.48631-6.6048.9228-9.88164.33031-2.4796.8178-4.896.05964-7.3986-.21831-.72076.20178-1.61411.197-2.42755A9.64511,9.64511,0,0,0,718.17,238.763c-1.03285.45338-1.759.77218-2.47779,1.08769-.97357-1.82464-.97357-1.82464,1.09705-3.04522a34.0748,34.0748,0,0,0-.84517-5.61486,25.23937,25.23937,0,0,0-2.53088-4.90133,6.68977,6.68977,0,0,0-1.72411-2.04046c-3.14361-2.27035-4.47753-7.3712-2.398-10.62165a5.346,5.346,0,0,1,4.4965-2.693c1.91331-.06108,4.02842-.2415,5.313-2.19335.19887-.30207.78293-.33556,1.168-.53361.62158-.31964,1.52177-.52141,1.78615-1.03807,1.12113-2.19078,3.27149-2.44171,5.22409-3.24485,2.60791-1.0727,5.52821-1.6597,7.45668-4.04311a3.7433,3.7433,0,0,1,1.14636-.71408,21.32336,21.32336,0,0,0,2.568-1.40861c2.16091-1.61819,3.58818-1.38279,6.27287-.38289,2.41716.90028,3.9588,2.60614,5.70535,4.21055,1.56459,1.43738,3.10325,2.9176,5.32059,3.31445,2.72336-1.74109,5.51946-3.20569,8.91942-2.68141a1.75983,1.75983,0,0,0,1.08655-.08682c2.2837-1.39774,4.98369-1.28422,7.40937-2.09686a19.38163,19.38163,0,0,1,11.702-.044c1.65485.46218,3.38317.65606,5.05026,1.08111,4.68995,1.19576,9.07914,2.94666,12.24892,6.87731a7.96015,7.96015,0,0,0,1.60465,1.51211,15.8919,15.8919,0,0,1,6.24446,8.86492,2.27852,2.27852,0,0,0,.473.98633c2.66269,2.58047,2.85778,6.08454,3.5667,9.39748a2.41957,2.41957,0,0,1,.11478.53725c-.14512,5.5968-.35875,11.19271-.42269,16.79035-.02825,2.47738.26518,4.95729.37435,7.43774.10968,2.49061.12265,4.98621.26725,7.47442.17417,2.99618-.2271,5.979.84935,8.9874.78416,2.1916.59556,4.73673.80109,7.12767.10264,1.19467.00589,2.44654,1.39388,3.04012.08085.03457.19975.11627.20186.17934.12089,3.62237,3.8191,4.30338,5.483,6.65953.82136,1.16317,1.7779,2.2309,2.67329,3.34184Z"/>
          <path d="M615.82679,296.10823a14.061,14.061,0,0,0-1.44652-2.02477c-1.73575-1.63133-3.5052-3.23035-5.32287-4.76953-1.07057-.90658-2.25652-1.67682-3.21614-2.38048-1.96482-2.66857-3.853-5.24187-5.75415-7.80548-.27136-.36593-.74084-.63494-.8893-1.03409-1.34713-3.62117-2.73929-7.2307-3.91059-10.90978-.52366-1.64507-.936-3.52025,1.308-4.73077-1.58287-1.8176-1.28059-3.86281-1.28121-5.86528-.00129-3.508-.031-7.01594-.04958-10.5239-.001-.18454-.0802-.4077-.00369-.54779,1.29333-2.36948,1.28255-5.04146,1.8102-7.59012.25936-1.25321.84276-2.44308,1.06479-3.69956.70241-3.97558,2.5912-7.47169,4.29576-11.04659a8.10748,8.10748,0,0,0,.73959-1.46507,3.41192,3.41192,0,0,1,2.59958-2.5601c.66157-.21954,1.59543-.98082,1.61837-1.52983.10847-2.59467,2.13711-3.55538,3.802-4.761,1.40731-1.01907,1.497-.89516,2.26412-2.64613,1.42224-.12625,2.80221-.48969,3.2484-2.24592a2.0727,2.0727,0,0,1,.84153-1.049c1.86252-1.26265,3.75693-2.47845,5.64842-3.69788.29741-.19172.64772-.47346.955-.45157,3.97255.28285,7.63327-1.22863,11.29483-2.26925,6.68165-1.899,13.42413-1.51826,20.07064-.8174,4.02577.42449,7.87967,2.486,11.80881,3.818,1.83137.62086,3.65685,1.25932,5.488,1.88081a3.84439,3.84439,0,0,1,.80115.1971q3.12162,1.9771,6.21379,4.00055c2.38515,1.56846,4.6705,3.31075,7.15467,4.69925a5.93019,5.93019,0,0,1,3.28736,4.14629c.26027,1.23453.52617,2.40385,2.095,2.9522a4.53164,4.53164,0,0,1,2.15319,2.35424c1.12218,2.49145,1.98241,5.09959,2.9955,7.6419.468,1.17453,1.08361,2.28951,1.57166,3.45686.89735,2.14643,2.313,4.05609,2.09018,6.66184-.12627,1.47777.64947,3.02662.98124,4.55164a15.502,15.502,0,0,1,.56351,3.21626c-.001,2.76779-.19486,5.53488-.24717,8.30347-.0384,2.03363.02541,4.06564-.91926,5.95888a2.51987,2.51987,0,0,0-.26881,1.06777c-.03974,5.8862-2.47823,11.06017-4.83963,16.249a7.74225,7.74225,0,0,1-1.449,1.99909c-2.76456,2.945-5.466,5.96041-8.38963,8.741a48.83586,48.83586,0,0,1-6.12373,4.69939c-2.07465,1.42317-4.25289,2.70438-6.44377,3.94544-1.08382.614-2.07591,1.40863-3.55548,1.27312-.91854-.08417-1.90549.56581-2.86012.89079-2.25922.7691-4.52961,1.50786-6.77124,2.32539-1.17582.42879-2.28362,1.04293-3.45591,1.48377a5.16861,5.16861,0,0,1-1.832.31006c-2.771-.02716-5.54124-.15019-8.312-.15968-1.66962-.00573-3.33483.13318-4.76765-.98935a1.27711,1.27711,0,0,0-.77058-.27556c-4.67263.21689-8.69406-2.19006-13.055-3.22069-3.46045-.81785-6.7428-2.02728-9.06072-4.90347C618.50278,295.60555,617.11418,296.09039,615.82679,296.10823ZM642.55785,282.529a49.23338,49.23338,0,0,1,5.71885.75638c2.24755.57074,3.30207.34337,4.65474-1.57172a8.42561,8.42561,0,0,1,.82314-1.08466c3.53488-3.58661,8.33038-6.132,9.55576-11.62862.07218-.32334.44906-.56886.64141-.87728.42492-.68148.84719-1.36681,1.2258-2.07456.64437-1.20465,1.20364-2.45741,1.89208-3.6353.77392-1.3242.94279-2.80209-.16806-3.77339-1.28076-1.11991-.97258-2.20218-.61477-3.48474.34252-1.22778.937-2.55073.74948-3.72454a19.08551,19.08551,0,0,1,.32832-6.02865c.32131-2.11383,1.26971-4.20346-.17-6.36769-.50344-.75679-.3736-1.969-.43469-2.97918a17.38151,17.38151,0,0,0-2.27276-7.32983,32.27525,32.27525,0,0,1-1.4095-3.549c-2.09426-.13487-3.0944-1.57839-2.99008-3.97649-1.1503-.495-2.26136-.91629-3.315-1.4509a2.73918,2.73918,0,0,1-1.34073-1.12956,3.36585,3.36585,0,0,0-2.47984-1.97212c-2.04685-.677-4.31749-.51856-6.20682-1.9163-.54568-.40373-1.81741-.16979-2.60065.15131a21.93847,21.93847,0,0,0-8.6234,5.68072c-3.32641,3.80548-5.65023,7.84851-5.16971,13.09584.03929.42991-.26061.88021-.32562,1.33218q-.46975,3.26524-.889,6.53761a9.87783,9.87783,0,0,1-.17795,2.16464c-1.52045,4.0231-.77381,8.048.1453,11.97968.84447,3.61263,2.42223,7.03451,3.13971,10.70822a5.92216,5.92216,0,0,0,1.07325,2.51962,6.27662,6.27662,0,0,1,1.27695,3.84032,3.60992,3.60992,0,0,0,1.96649,3.352c.9.49367,1.34635,1.85528,1.93192,2.86453a14.49537,14.49537,0,0,1,.74677,1.78667l2.42088.16787C642.07766,281.664,642.42539,282.29044,642.55785,282.529Z"/>
          <path d="M1376.37361,209.83065c.67141.79763,1.57619,2.44667,2.96625,3.34483a25.66419,25.66419,0,0,1,3.10763,2.42519c2.61444,2.3099,4.35283,5.20339,6.14715,8.114a20.44116,20.44116,0,0,1,3.21715,13.34912,61.29134,61.29134,0,0,1-1.47344,7.25746c-.18394.8113-1.20063,1.60239-2.0265,2.06209a42.8121,42.8121,0,0,1-4.55509,1.97829,1.20236,1.20236,0,0,1-.78639.11407c-3.12265-1.24946-6.70375.161-9.7283-1.68772a2.789,2.789,0,0,0-1.34033-.30312c-3.486-.08157-6.97337-.11356-10.45928-.20181a9.93075,9.93075,0,0,1-2.96278-.31535,20.39376,20.39376,0,0,0-12.19309-.36605,13.19579,13.19579,0,0,1-3.8413.19317,3.18006,3.18006,0,0,0-3.18783,1.60075c-.81106,1.22362-2.23474,2.04118-3.64444,3.25786.24021,2.76527.45525,5.964.821,9.14538.18,1.5671.83271,1.829,2.47448,1.74251,1.64366-.08666,3.29794.0276,4.67483.04948,1.42351,1.95544,2.8123,3.70081,4.01512,5.56614a26.12028,26.12028,0,0,1,2.56358,4.81279c1.01788,2.68836,3.16133,3.87,5.60662,4.77321.23967.08854.65552-.12864.80618.00414,2.22105,1.95756,5.14657.96957,7.60955,1.8586a4.87957,4.87957,0,0,0,3.97463-.49549,11.55614,11.55614,0,0,1,3.1104-.80166c2.18135-.35134,4.37688-.61528,6.66909-.92923.236-.71193.45024-1.35841.71056-2.14362,1.87741.12678,3.71706.18472,5.53984.39138,2.13752.24238,4.68738,2.713,4.61029,4.77744a18.11257,18.11257,0,0,1-1.08325,6.209c-.84264,2.01827-1.58536,4.34549-3.975,5.37807-.53526.23139-.80647,1.011-1.30332,1.4083-.83678.669-1.74862,1.246-2.64366,1.83947-.985.653-2.32975,1.05686-2.91983,1.95995-2.20237,3.371-5.666,4.67517-9.14348,5.91566-2.4998.89174-5.1277,1.42322-7.69419,2.1308a8.25217,8.25217,0,0,0-1.81463.61838,16.22476,16.22476,0,0,1-9.08411,2.03345c-3.59729-.28109-7.41967-.30674-10.61151-2.55447-6.19013-1.47934-10.67527-5.95866-15.87464-9.15424a39.89942,39.89942,0,0,1-8.97406-6.93158c-1.9657-2.17407-3.95805-4.3246-5.88351-6.53357-.32827-.37663-.357-1.00443-.56533-1.49884-.16576-.39328-.31114-.99477-.60864-1.10024-1.7982-.63747-2.03674-2.20375-2.46341-3.72678-1.14313-4.08-2.35972-8.13931-3.50162-12.21962a4.04884,4.04884,0,0,1,.04258-1.56392c.19342-1.43345.784-2.91481.58052-4.28251-.8147-5.47809.62586-10.6316,1.89388-15.82822.15254-.62508.59984-1.32972.43982-1.85391-.77831-2.55113.84358-4.11491,2.086-5.94544,3.25775-4.79959,6.25926-9.77782,9.63186-14.49235,1.29646-1.81223,3.28114-3.15125,5.02582-4.61838,1.90008-1.59764,3.85776-3.13043,5.84242-4.622,1.48-1.11213,3.01819-2.16641,5.03243-1.99082.26346.023.71364-.01888.78414-.1687,1.1753-2.49768,3.78188-2.0285,5.77123-2.8091,2.05394-.80595,4.155-1.49127,6.21-2.29479,2.89639-1.13256,5.83459-.77922,8.71492-.142,4.31821.95534,8.62735,1.995,12.86476,3.25342,2.18981.65026,4.18943,1.91718,6.32761,2.774A44.67472,44.67472,0,0,0,1376.37361,209.83065ZM1341.17819,223.483a20.03163,20.03163,0,0,1,.72274,3.81506c-.00227,1.5159-.2907,3.00449,1.4282,3.80876,1.38052.64591,2.45413,1.98336,4.25906,1.6684,2.88641-.50366,5.79192-.89741,8.87292-1.36554.24713-1.45535.85063-3.01579.66581-4.47659-.18779-1.48682-.7836-3.58238-1.86127-4.144-1.68361-.87737-2.031-2.529-3.24365-3.53045a2.65793,2.65793,0,0,0-1.8456-.17742,13.91589,13.91589,0,0,0-6.08529,2.51824C1343.2127,222.23781,1342.26709,222.7837,1341.17819,223.483Z"/>
          <path d="M549.78893,193.16442a5.16011,5.16011,0,0,1,2.09826-4.5394c1.96527-1.66686,3.87243-3.40607,5.89116-5.00476,1.5434-1.22223,4.55136-.84162,6.01527.57365a19.28825,19.28825,0,0,0,3.0055,2.71153,4.3541,4.3541,0,0,1,1.84525,3.18991c.34041,1.5091-.08123,3.33962,1.76064,4.22922a.31139.31139,0,0,1,.114.2438c-.06288,3.62133,2.38243,6.0233,4.20523,8.73974a4.50511,4.50511,0,0,0,3.33418,2.16273,21.90156,21.90156,0,0,1,3.42545.85528,11.10977,11.10977,0,0,0,2.59249.91682c2.33782.055,3.79979,1.42618,5.42254,2.83929a3.67252,3.67252,0,0,1,1.37064,3.63807c-.11674.82257-.24966,1.64467-.42063,2.45741a6.30745,6.30745,0,0,1-6.16357,5.35786c-1.74472.08791-3.5-.03508-5.37994-.065-1.30412,1.36915-2.64708,2.77908-4.23547,4.44665-2.53874-.63486-3.81,1.27819-5.10951,3.47963-1.52376,2.58134-1.64887,5.43543-2.13257,8.23572-.09419.545.04444,1.20123-.21248,1.63579-1.91647,3.24128-.71428,6.38523-.02831,9.65048.36427,1.73406-.00809,3.62535.62826,5.40211a21.93015,21.93015,0,0,1,.62168,2.867,3.24727,3.24727,0,0,1,.22685,1.06164c-.39614,2.42912-.68575,4.89207-1.31958,7.26128-.6118,2.28719-.775,2.24352,1.0692,3.87041.1303,4.03166.36246,8.0281,3.887,10.85828a5.90128,5.90128,0,0,1,1.99255-.64986c3.8691.14107,7.73235.43739,11.60087.602a2.717,2.717,0,0,1,2.55072,1.28734c.51672.8713,1.14494,1.677,1.731,2.50664a2.91568,2.91568,0,0,1,.30781,3.12226c-.33258.739-.348,1.61485-.6261,2.38594a16.328,16.328,0,0,1-1.125,2.38034c-.26516.476-.7626.83341-.98259,1.322-1.35175,3.0033-3.88969,4.18968-6.92566,4.739-.5435.09833-1.32543.53694-1.45329.97666-.45621,1.56834-1.7895,1.48753-2.90957,2.0599-4.32843,2.21192-9.17212.72388-13.5733,2.16128a2.56785,2.56785,0,0,1-1.32512-.2414c-3.26426-.98213-6.5543-1.89122-9.77612-2.99812-3.06449-1.05277-5.05672-3.6219-7.37044-5.703-.40653-.36563-.37593-1.20674-.57109-1.82062a5.5311,5.5311,0,0,0-.73558-2.04223c-2.31087-2.51216-2.7787-5.80277-3.73452-8.84246a16.80982,16.80982,0,0,1-.28159-5.20368,19.10783,19.10783,0,0,0-.87133-5.68781,41.6158,41.6158,0,0,1-1.01665-17.19248c.79587-5.94142,1.36721-11.91559,1.88936-17.88833a6.98919,6.98919,0,0,0-.92969-3.04171c-.46486-1.07337-1.2004-2.03339-1.63032-3.11725-.83871-2.11438-1.5183-4.29149-2.33489-6.41531-.1458-.37911-.61409-.65273-.9689-.92969a48.52587,48.52587,0,0,1-4.32347-3.405,10.34963,10.34963,0,0,1-1.68672-2.98308c-.59434-1.24115.57628-1.9759.88693-2.95422.92073-2.899,3.31455-3.9821,5.66491-5.21276.40425-.21163.94788-.42869,1.11027-.78691,1.12938-2.49083,3.73188-3.36116,5.51058-5.126.32626-.32368.66409-.82611,1.04374-.87432,2.25293-.286,2.81791-2.16422,3.65193-3.75944C546.06276,195.04516,547.19844,193.42841,549.78893,193.16442Z"/>
        </g>
      </g>
    </g>
  </g>
</svg>
